<svg width="196" height="162" viewBox="0 0 196 162" fill="none" xmlns="http://www.w3.org/2000/svg">
<ellipse cx="27.1925" cy="23.122" rx="27.1925" ry="23.122" transform="matrix(-0.82472 -0.565542 -0.565542 0.82472 133.332 77.1702)" fill="#FFDE32"/>
<path d="M69.2755 66.73C73.3968 67.3422 76.415 62.9408 74.3589 59.3169L52.6192 21.0005C50.7958 17.7867 46.2365 17.5928 44.1468 20.6402L22.3106 52.4835C20.2209 55.5309 22.0446 59.714 25.6995 60.257L69.2755 66.73Z" fill="#FFDE32"/>
<path d="M126.383 94.992C122.262 94.3798 119.244 98.7813 121.3 102.405L143.04 140.722C144.863 143.935 149.422 144.129 151.512 141.082L173.348 109.239C175.438 106.191 173.614 102.008 169.959 101.465L126.383 94.992Z" fill="#FFDE32"/>
<circle cx="5.60534" cy="5.60534" r="5.60534" transform="matrix(-0.82472 -0.565542 -0.565542 0.82472 118.938 79.1938)" fill="white"/>
<path d="M31.2938 140.395C31.4238 140.395 31.5238 140.46 31.5938 140.59C31.6638 140.72 31.6988 140.885 31.6988 141.085C31.6988 141.335 31.6638 141.53 31.5938 141.67C31.5238 141.8 31.4138 141.89 31.2638 141.94C30.6638 142.15 30.0038 142.27 29.2838 142.3C29.0838 143.13 28.7038 143.8 28.1438 144.31C27.5938 144.82 26.9838 145.075 26.3138 145.075C25.3038 145.075 24.5688 144.69 24.1088 143.92C23.6488 143.15 23.4188 142.035 23.4188 140.575C23.4188 139.285 23.5788 137.885 23.8988 136.375C24.2188 134.855 24.6838 133.565 25.2938 132.505C25.9138 131.435 26.6488 130.9 27.4988 130.9C27.9588 130.9 28.3288 131.1 28.6088 131.5C28.8888 131.89 29.0288 132.4 29.0288 133.03C29.0288 133.85 28.8738 134.665 28.5638 135.475C28.2538 136.285 27.7388 137.135 27.0188 138.025C27.6888 138.075 28.2338 138.355 28.6538 138.865C29.0738 139.365 29.3238 139.985 29.4038 140.725C29.8738 140.695 30.4338 140.595 31.0838 140.425C31.1438 140.405 31.2138 140.395 31.2938 140.395ZM27.1538 132.385C26.9538 132.385 26.7338 132.685 26.4938 133.285C26.2638 133.875 26.0488 134.68 25.8488 135.7C25.6488 136.72 25.4988 137.835 25.3988 139.045C26.0588 137.835 26.5838 136.77 26.9738 135.85C27.3738 134.92 27.5738 134.095 27.5738 133.375C27.5738 133.055 27.5338 132.81 27.4538 132.64C27.3838 132.47 27.2838 132.385 27.1538 132.385ZM26.3738 143.485C26.6838 143.485 26.9588 143.355 27.1988 143.095C27.4388 142.835 27.5988 142.46 27.6788 141.97C27.3688 141.76 27.1288 141.485 26.9588 141.145C26.7988 140.805 26.7188 140.445 26.7188 140.065C26.7188 139.925 26.7388 139.735 26.7788 139.495H26.7338C26.3238 139.495 25.9788 139.7 25.6988 140.11C25.4288 140.51 25.2938 141.05 25.2938 141.73C25.2938 142.3 25.3988 142.735 25.6088 143.035C25.8288 143.335 26.0838 143.485 26.3738 143.485ZM38.0536 140.395C38.1836 140.395 38.2836 140.46 38.3536 140.59C38.4236 140.72 38.4586 140.885 38.4586 141.085C38.4586 141.565 38.3136 141.85 38.0236 141.94C37.4236 142.15 36.7636 142.27 36.0436 142.3C35.8536 143.14 35.4786 143.815 34.9186 144.325C34.3586 144.825 33.7236 145.075 33.0136 145.075C32.4136 145.075 31.8986 144.93 31.4686 144.64C31.0486 144.35 30.7286 143.965 30.5086 143.485C30.2886 143.005 30.1786 142.485 30.1786 141.925C30.1786 141.165 30.3236 140.49 30.6136 139.9C30.9036 139.3 31.3036 138.835 31.8136 138.505C32.3236 138.165 32.8886 137.995 33.5086 137.995C34.2686 137.995 34.8786 138.26 35.3386 138.79C35.8086 139.31 36.0836 139.955 36.1636 140.725C36.6336 140.695 37.1936 140.595 37.8436 140.425C37.9236 140.405 37.9936 140.395 38.0536 140.395ZM33.1336 143.485C33.4536 143.485 33.7286 143.355 33.9586 143.095C34.1986 142.835 34.3586 142.46 34.4386 141.97C34.1286 141.76 33.8886 141.485 33.7186 141.145C33.5586 140.805 33.4786 140.445 33.4786 140.065C33.4786 139.905 33.4936 139.745 33.5236 139.585H33.4486C33.0486 139.585 32.7136 139.78 32.4436 140.17C32.1836 140.55 32.0536 141.09 32.0536 141.79C32.0536 142.34 32.1586 142.76 32.3686 143.05C32.5886 143.34 32.8436 143.485 33.1336 143.485ZM38.2362 145.075C37.8562 145.075 37.5862 144.875 37.4262 144.475C37.2762 144.075 37.2012 143.435 37.2012 142.555C37.2012 141.255 37.3862 140.02 37.7562 138.85C37.8462 138.56 37.9912 138.35 38.1912 138.22C38.4012 138.08 38.6912 138.01 39.0612 138.01C39.2612 138.01 39.4012 138.035 39.4812 138.085C39.5612 138.135 39.6012 138.23 39.6012 138.37C39.6012 138.53 39.5262 138.89 39.3762 139.45C39.2762 139.85 39.1962 140.2 39.1362 140.5C39.0762 140.8 39.0262 141.17 38.9862 141.61C39.3162 140.75 39.6862 140.05 40.0962 139.51C40.5062 138.97 40.9062 138.585 41.2962 138.355C41.6962 138.125 42.0612 138.01 42.3912 138.01C43.0412 138.01 43.3662 138.335 43.3662 138.985C43.3662 139.375 43.2562 140.08 43.0362 141.1C42.8462 141.97 42.7512 142.545 42.7512 142.825C42.7512 143.225 42.8962 143.425 43.1862 143.425C43.3862 143.425 43.6212 143.305 43.8912 143.065C44.1712 142.815 44.5412 142.415 45.0012 141.865C45.1212 141.725 45.2562 141.655 45.4062 141.655C45.5362 141.655 45.6362 141.715 45.7062 141.835C45.7862 141.955 45.8262 142.12 45.8262 142.33C45.8262 142.73 45.7312 143.04 45.5412 143.26C45.1112 143.79 44.6462 144.225 44.1462 144.565C43.6562 144.905 43.0962 145.075 42.4662 145.075C41.9562 145.075 41.5712 144.93 41.3112 144.64C41.0512 144.34 40.9212 143.91 40.9212 143.35C40.9212 143.07 40.9912 142.57 41.1312 141.85C41.2612 141.22 41.3262 140.785 41.3262 140.545C41.3262 140.385 41.2712 140.305 41.1612 140.305C41.0312 140.305 40.8462 140.475 40.6062 140.815C40.3762 141.145 40.1362 141.585 39.8862 142.135C39.6462 142.685 39.4512 143.265 39.3012 143.875C39.1912 144.345 39.0612 144.665 38.9112 144.835C38.7712 144.995 38.5462 145.075 38.2362 145.075ZM46.1426 145.075C45.6926 145.075 45.3226 144.87 45.0326 144.46C44.7526 144.04 44.6126 143.52 44.6126 142.9C44.6126 142.15 44.6626 141.465 44.7626 140.845C44.8626 140.215 45.0276 139.55 45.2576 138.85C45.3576 138.55 45.4976 138.335 45.6776 138.205C45.8576 138.075 46.1426 138.01 46.5326 138.01C46.7526 138.01 46.9026 138.045 46.9826 138.115C47.0726 138.185 47.1176 138.29 47.1176 138.43C47.1176 138.51 47.0626 138.78 46.9526 139.24C46.8526 139.61 46.7726 139.945 46.7126 140.245C46.5126 141.295 46.4126 141.995 46.4126 142.345C46.4126 142.555 46.4376 142.705 46.4876 142.795C46.5376 142.875 46.6176 142.915 46.7276 142.915C46.8776 142.915 47.0626 142.765 47.2826 142.465C47.5126 142.165 47.7526 141.71 48.0026 141.1C48.2626 140.49 48.5126 139.74 48.7526 138.85C48.8326 138.55 48.9526 138.335 49.1126 138.205C49.2826 138.075 49.5326 138.01 49.8626 138.01C50.0926 138.01 50.2526 138.04 50.3426 138.1C50.4326 138.15 50.4776 138.25 50.4776 138.4C50.4776 138.65 50.3526 139.335 50.1026 140.455C49.8226 141.735 49.6826 142.525 49.6826 142.825C49.6826 143.015 49.7226 143.165 49.8026 143.275C49.8826 143.375 49.9876 143.425 50.1176 143.425C50.3176 143.425 50.5526 143.305 50.8226 143.065C51.1026 142.815 51.4726 142.415 51.9326 141.865C52.0526 141.725 52.1876 141.655 52.3376 141.655C52.4676 141.655 52.5676 141.715 52.6376 141.835C52.7176 141.955 52.7576 142.12 52.7576 142.33C52.7576 142.73 52.6626 143.04 52.4726 143.26C52.0426 143.79 51.5776 144.225 51.0776 144.565C50.5876 144.905 50.0276 145.075 49.3976 145.075C48.9176 145.075 48.5626 144.89 48.3326 144.52C48.1126 144.15 48.0026 143.63 48.0026 142.96C47.8326 143.64 47.5776 144.165 47.2376 144.535C46.8976 144.895 46.5326 145.075 46.1426 145.075ZM54.3313 145.405C53.8113 145.405 53.4113 145.285 53.1313 145.045C52.8613 144.805 52.7263 144.535 52.7263 144.235C52.7263 143.975 52.8213 143.75 53.0113 143.56C53.2013 143.37 53.4813 143.275 53.8513 143.275C53.9813 143.275 54.1313 143.29 54.3013 143.32C54.4813 143.34 54.6163 143.355 54.7063 143.365C54.6963 143.105 54.6363 142.86 54.5263 142.63C54.4263 142.4 54.2963 142.18 54.1363 141.97C53.9763 141.75 53.8263 141.56 53.6863 141.4C53.3763 141.99 53.0663 142.48 52.7563 142.87C52.4563 143.26 52.1263 143.63 51.7663 143.98C51.5863 144.16 51.3963 144.25 51.1963 144.25C51.0363 144.25 50.9063 144.195 50.8063 144.085C50.7063 143.965 50.6563 143.82 50.6563 143.65C50.6563 143.45 50.7263 143.265 50.8663 143.095L51.0613 142.855C51.6113 142.175 52.0263 141.615 52.3063 141.175C52.4863 140.885 52.6663 140.54 52.8463 140.14C53.0363 139.74 53.2813 139.195 53.5813 138.505C53.7713 138.065 54.1663 137.845 54.7663 137.845C55.0463 137.845 55.2413 137.87 55.3513 137.92C55.4613 137.97 55.5163 138.05 55.5163 138.16C55.5163 138.22 55.4963 138.315 55.4563 138.445C55.4163 138.575 55.3613 138.705 55.2913 138.835C55.1113 139.195 55.0213 139.5 55.0213 139.75C55.0213 139.9 55.0713 140.065 55.1713 140.245C55.2813 140.425 55.4463 140.65 55.6663 140.92C55.9863 141.34 56.2263 141.7 56.3863 142C56.5563 142.29 56.6413 142.61 56.6413 142.96C56.6413 143.38 56.5413 143.78 56.3413 144.16C56.1513 144.53 55.8813 144.83 55.5313 145.06C55.1813 145.29 54.7813 145.405 54.3313 145.405ZM64.2793 145.075C63.2993 145.075 62.5343 144.8 61.9843 144.25C61.4443 143.69 61.1743 142.955 61.1743 142.045C61.1743 141.235 61.3343 140.525 61.6543 139.915C61.9743 139.305 62.3893 138.835 62.8993 138.505C63.4093 138.175 63.9443 138.01 64.5043 138.01C65.0543 138.01 65.4793 138.175 65.7793 138.505C66.0893 138.825 66.2443 139.24 66.2443 139.75C66.2443 140.17 66.1493 140.525 65.9593 140.815C65.7793 141.105 65.5393 141.25 65.2393 141.25C65.0493 141.25 64.8943 141.205 64.7743 141.115C64.6643 141.025 64.6093 140.9 64.6093 140.74C64.6093 140.67 64.6193 140.59 64.6393 140.5C64.6593 140.41 64.6743 140.345 64.6843 140.305C64.7343 140.155 64.7593 140.015 64.7593 139.885C64.7593 139.755 64.7243 139.655 64.6543 139.585C64.5943 139.515 64.5043 139.48 64.3843 139.48C64.1543 139.48 63.9393 139.585 63.7393 139.795C63.5393 139.995 63.3793 140.27 63.2593 140.62C63.1393 140.97 63.0793 141.355 63.0793 141.775C63.0793 142.935 63.5843 143.515 64.5943 143.515C65.0043 143.515 65.4443 143.38 65.9143 143.11C66.3943 142.83 66.8643 142.415 67.3243 141.865C67.4443 141.725 67.5793 141.655 67.7293 141.655C67.8593 141.655 67.9593 141.715 68.0293 141.835C68.1093 141.955 68.1493 142.12 68.1493 142.33C68.1493 142.71 68.0543 143.02 67.8643 143.26C67.3943 143.84 66.8293 144.29 66.1693 144.61C65.5193 144.92 64.8893 145.075 64.2793 145.075ZM68.6353 145.075C68.0153 145.075 67.5203 144.85 67.1503 144.4C66.7803 143.95 66.5953 143.36 66.5953 142.63C66.5953 141.83 66.7803 141.075 67.1503 140.365C67.5203 139.645 68.0103 139.07 68.6203 138.64C69.2403 138.2 69.8953 137.98 70.5853 137.98C70.8053 137.98 70.9503 138.025 71.0203 138.115C71.1003 138.195 71.1653 138.345 71.2153 138.565C71.4253 138.525 71.6453 138.505 71.8753 138.505C72.3653 138.505 72.6103 138.68 72.6103 139.03C72.6103 139.24 72.5353 139.74 72.3853 140.53C72.1553 141.68 72.0403 142.48 72.0403 142.93C72.0403 143.08 72.0753 143.2 72.1453 143.29C72.2253 143.38 72.3253 143.425 72.4453 143.425C72.6353 143.425 72.8653 143.305 73.1353 143.065C73.4053 142.815 73.7703 142.415 74.2303 141.865C74.3503 141.725 74.4853 141.655 74.6353 141.655C74.7653 141.655 74.8653 141.715 74.9353 141.835C75.0153 141.955 75.0553 142.12 75.0553 142.33C75.0553 142.73 74.9603 143.04 74.7703 143.26C74.3603 143.77 73.9253 144.2 73.4653 144.55C73.0053 144.9 72.5603 145.075 72.1303 145.075C71.8003 145.075 71.4953 144.965 71.2153 144.745C70.9453 144.515 70.7403 144.205 70.6003 143.815C70.0803 144.655 69.4253 145.075 68.6353 145.075ZM69.1753 143.56C69.3953 143.56 69.6053 143.43 69.8053 143.17C70.0053 142.91 70.1503 142.565 70.2403 142.135L70.7953 139.375C70.3753 139.385 69.9853 139.545 69.6253 139.855C69.2753 140.155 68.9953 140.555 68.7853 141.055C68.5753 141.555 68.4703 142.085 68.4703 142.645C68.4703 142.955 68.5303 143.185 68.6503 143.335C68.7803 143.485 68.9553 143.56 69.1753 143.56ZM74.9012 145.075C74.5212 145.075 74.2512 144.875 74.0912 144.475C73.9412 144.075 73.8662 143.435 73.8662 142.555C73.8662 141.255 74.0512 140.02 74.4212 138.85C74.5112 138.56 74.6562 138.35 74.8562 138.22C75.0662 138.08 75.3562 138.01 75.7262 138.01C75.9262 138.01 76.0662 138.035 76.1462 138.085C76.2262 138.135 76.2662 138.23 76.2662 138.37C76.2662 138.53 76.1912 138.89 76.0412 139.45C75.9412 139.85 75.8612 140.2 75.8012 140.5C75.7412 140.8 75.6912 141.17 75.6512 141.61C75.9812 140.75 76.3512 140.05 76.7612 139.51C77.1712 138.97 77.5712 138.585 77.9612 138.355C78.3612 138.125 78.7262 138.01 79.0562 138.01C79.7062 138.01 80.0312 138.335 80.0312 138.985C80.0312 139.375 79.9212 140.08 79.7012 141.1C79.5112 141.97 79.4162 142.545 79.4162 142.825C79.4162 143.225 79.5612 143.425 79.8512 143.425C80.0512 143.425 80.2862 143.305 80.5562 143.065C80.8362 142.815 81.2062 142.415 81.6662 141.865C81.7862 141.725 81.9212 141.655 82.0712 141.655C82.2012 141.655 82.3012 141.715 82.3712 141.835C82.4512 141.955 82.4912 142.12 82.4912 142.33C82.4912 142.73 82.3962 143.04 82.2062 143.26C81.7762 143.79 81.3112 144.225 80.8112 144.565C80.3212 144.905 79.7612 145.075 79.1312 145.075C78.6212 145.075 78.2362 144.93 77.9762 144.64C77.7162 144.34 77.5862 143.91 77.5862 143.35C77.5862 143.07 77.6562 142.57 77.7962 141.85C77.9262 141.22 77.9912 140.785 77.9912 140.545C77.9912 140.385 77.9362 140.305 77.8262 140.305C77.6962 140.305 77.5112 140.475 77.2712 140.815C77.0412 141.145 76.8012 141.585 76.5512 142.135C76.3112 142.685 76.1162 143.265 75.9662 143.875C75.8562 144.345 75.7262 144.665 75.5762 144.835C75.4362 144.995 75.2112 145.075 74.9012 145.075ZM89.7976 141.655C89.9276 141.655 90.0276 141.715 90.0976 141.835C90.1776 141.955 90.2176 142.12 90.2176 142.33C90.2176 142.73 90.1226 143.04 89.9326 143.26C89.5226 143.76 89.0726 144.19 88.5826 144.55C88.0926 144.9 87.6076 145.075 87.1276 145.075C86.3676 145.075 85.7876 144.63 85.3876 143.74C84.9676 144.27 84.5976 144.625 84.2776 144.805C83.9676 144.985 83.6026 145.075 83.1826 145.075C82.5726 145.075 82.0676 144.85 81.6676 144.4C81.2776 143.94 81.0826 143.345 81.0826 142.615C81.0826 141.815 81.2526 141.075 81.5926 140.395C81.9326 139.705 82.3976 139.145 82.9876 138.715C83.5876 138.275 84.2576 138.015 84.9976 137.935C85.1876 135.995 85.5476 134.34 86.0776 132.97C86.6176 131.59 87.3226 130.9 88.1926 130.9C88.6226 130.9 88.9776 131.095 89.2576 131.485C89.5476 131.875 89.6926 132.465 89.6926 133.255C89.6926 134.375 89.4176 135.685 88.8676 137.185C88.3176 138.685 87.5826 140.225 86.6626 141.805C86.7026 142.385 86.7876 142.8 86.9176 143.05C87.0576 143.3 87.2326 143.425 87.4426 143.425C87.7126 143.425 87.9876 143.305 88.2676 143.065C88.5476 142.825 88.9226 142.425 89.3926 141.865C89.5126 141.725 89.6476 141.655 89.7976 141.655ZM88.0276 132.37C87.8376 132.37 87.6476 132.71 87.4576 133.39C87.2676 134.06 87.1026 134.94 86.9626 136.03C86.8326 137.12 86.7376 138.26 86.6776 139.45C87.7976 137.01 88.3576 135.05 88.3576 133.57C88.3576 133.19 88.3226 132.895 88.2526 132.685C88.1926 132.475 88.1176 132.37 88.0276 132.37ZM83.7076 143.56C83.8976 143.56 84.0876 143.485 84.2776 143.335C84.4676 143.175 84.7076 142.885 84.9976 142.465C84.8976 141.925 84.8476 141.32 84.8476 140.65C84.8476 140.41 84.8576 140.02 84.8776 139.48C84.3276 139.65 83.8676 140.02 83.4976 140.59C83.1376 141.15 82.9576 141.775 82.9576 142.465C82.9576 143.195 83.2076 143.56 83.7076 143.56ZM94.2473 138.01C94.4773 138.01 94.6373 138.04 94.7273 138.1C94.8173 138.16 94.8623 138.26 94.8623 138.4C94.8623 138.64 94.7323 139.495 94.4723 140.965C94.2423 142.375 94.1073 143.21 94.0673 143.47C93.6973 146.04 93.1873 148.075 92.5373 149.575C91.8873 151.075 91.0223 151.825 89.9423 151.825C89.4323 151.825 89.0173 151.665 88.6973 151.345C88.3773 151.035 88.2173 150.625 88.2173 150.115C88.2173 149.645 88.3223 149.165 88.5323 148.675C88.7523 148.185 89.1523 147.62 89.7323 146.98C90.3223 146.35 91.1523 145.625 92.2223 144.805L92.2673 144.46C92.3373 144.09 92.4173 143.56 92.5073 142.87C92.3073 143.59 92.0273 144.14 91.6673 144.52C91.3073 144.89 90.9273 145.075 90.5273 145.075C90.0773 145.075 89.7073 144.87 89.4173 144.46C89.1373 144.04 88.9973 143.52 88.9973 142.9C88.9973 142.15 89.0473 141.465 89.1473 140.845C89.2473 140.215 89.4123 139.55 89.6423 138.85C89.7423 138.55 89.8823 138.335 90.0623 138.205C90.2423 138.075 90.5273 138.01 90.9173 138.01C91.1373 138.01 91.2873 138.045 91.3673 138.115C91.4573 138.185 91.5023 138.29 91.5023 138.43C91.5023 138.51 91.4473 138.78 91.3373 139.24C91.2373 139.61 91.1573 139.945 91.0973 140.245C91.0173 140.655 90.9473 141.05 90.8873 141.43C90.8273 141.8 90.7973 142.105 90.7973 142.345C90.7973 142.725 90.9023 142.915 91.1123 142.915C91.2623 142.915 91.4473 142.765 91.6673 142.465C91.8973 142.165 92.1373 141.71 92.3873 141.1C92.6473 140.49 92.8973 139.74 93.1373 138.85C93.2173 138.55 93.3373 138.335 93.4973 138.205C93.6673 138.075 93.9173 138.01 94.2473 138.01ZM90.1073 150.37C90.3573 150.37 90.6373 150.08 90.9473 149.5C91.2573 148.92 91.5673 147.955 91.8773 146.605C91.1073 147.255 90.5473 147.845 90.1973 148.375C89.8573 148.915 89.6873 149.385 89.6873 149.785C89.6873 149.955 89.7173 150.095 89.7773 150.205C89.8473 150.315 89.9573 150.37 90.1073 150.37ZM97.7086 141.49C97.5086 141.49 97.3436 141.445 97.2136 141.355C97.0836 141.265 97.0186 141.125 97.0186 140.935L97.0336 140.815C97.2036 139.695 97.4336 138.42 97.7236 136.99C98.0136 135.56 98.2836 134.325 98.5336 133.285C98.6936 132.645 99.1286 132.325 99.8386 132.325C100.479 132.325 100.799 132.53 100.799 132.94C100.799 133.03 100.784 133.13 100.754 133.24C100.494 134.3 100.149 135.585 99.7186 137.095C99.2886 138.595 98.8786 139.9 98.4886 141.01C98.3786 141.33 98.1186 141.49 97.7086 141.49ZM97.1386 145.075C96.6986 145.075 96.3636 144.955 96.1336 144.715C95.9136 144.475 95.8036 144.16 95.8036 143.77C95.8036 143.32 95.9286 142.96 96.1786 142.69C96.4386 142.42 96.7986 142.285 97.2586 142.285C97.6986 142.285 98.0286 142.395 98.2486 142.615C98.4786 142.825 98.5936 143.14 98.5936 143.56C98.5936 144.02 98.4636 144.39 98.2036 144.67C97.9436 144.94 97.5886 145.075 97.1386 145.075Z" fill="#FFDE32"/>
</svg>
