<svg width="154" height="134" viewBox="0 0 154 134" fill="none" xmlns="http://www.w3.org/2000/svg">
<path d="M89.906 81.9301C102.292 73.4368 106.478 58.014 99.2557 47.4824C92.0338 36.9508 76.1387 35.2984 63.7531 43.7917C51.3675 52.285 47.1814 67.7078 54.4034 78.2394C61.6253 88.771 77.5204 90.4234 89.906 81.9301Z" fill="#1E90FF"/>
<path d="M105.383 48.73C101.262 49.3422 98.244 44.9408 100.3 41.3169L122.04 3.00047C123.863 -0.21333 128.422 -0.40723 130.512 2.64017L152.348 34.4835C154.438 37.5309 152.614 41.714 148.959 42.257L105.383 48.73Z" fill="#1E90FF"/>
<path d="M48.2756 76.992C52.3969 76.3798 55.4151 80.7813 53.359 84.405L31.6193 122.722C29.7959 125.935 25.2366 126.129 23.1469 123.082L1.31068 91.239C-0.779024 88.191 1.04467 84.008 4.69957 83.465L48.2756 76.992Z" fill="#1E90FF"/>
<path d="M66.6839 67.2695C69.237 65.5187 69.8874 62.0297 68.1367 59.4766C66.3859 56.9235 62.8969 56.273 60.3438 58.0238C57.7907 59.7746 57.1402 63.2636 58.891 65.8167C60.6418 68.3698 64.1308 69.0202 66.6839 67.2695Z" fill="white"/>
<path d="M81.2939 122.395C81.4239 122.395 81.5239 122.46 81.5939 122.59C81.6639 122.72 81.6989 122.885 81.6989 123.085C81.6989 123.335 81.6639 123.53 81.5939 123.67C81.5239 123.8 81.4139 123.89 81.2639 123.94C80.6639 124.15 80.0039 124.27 79.2839 124.3C79.0839 125.13 78.7037 125.8 78.1437 126.31C77.5937 126.82 76.9837 127.075 76.3137 127.075C75.3037 127.075 74.5687 126.69 74.1087 125.92C73.6487 125.15 73.4187 124.035 73.4187 122.575C73.4187 121.285 73.5787 119.885 73.8987 118.375C74.2187 116.855 74.6837 115.565 75.2937 114.505C75.9137 113.435 76.6487 112.9 77.4987 112.9C77.9587 112.9 78.3287 113.1 78.6087 113.5C78.8887 113.89 79.0289 114.4 79.0289 115.03C79.0289 115.85 78.8737 116.665 78.5637 117.475C78.2537 118.285 77.7387 119.135 77.0187 120.025C77.6887 120.075 78.2337 120.355 78.6537 120.865C79.0739 121.365 79.3239 121.985 79.4039 122.725C79.8739 122.695 80.4339 122.595 81.0839 122.425C81.1439 122.405 81.2139 122.395 81.2939 122.395ZM77.1537 114.385C76.9537 114.385 76.7337 114.685 76.4937 115.285C76.2637 115.875 76.0487 116.68 75.8487 117.7C75.6487 118.72 75.4987 119.835 75.3987 121.045C76.0587 119.835 76.5837 118.77 76.9737 117.85C77.3737 116.92 77.5737 116.095 77.5737 115.375C77.5737 115.055 77.5337 114.81 77.4537 114.64C77.3837 114.47 77.2837 114.385 77.1537 114.385ZM76.3737 125.485C76.6837 125.485 76.9587 125.355 77.1987 125.095C77.4387 124.835 77.5987 124.46 77.6787 123.97C77.3687 123.76 77.1287 123.485 76.9587 123.145C76.7987 122.805 76.7187 122.445 76.7187 122.065C76.7187 121.925 76.7387 121.735 76.7787 121.495H76.7337C76.3237 121.495 75.9787 121.7 75.6987 122.11C75.4287 122.51 75.2937 123.05 75.2937 123.73C75.2937 124.3 75.3987 124.735 75.6087 125.035C75.8287 125.335 76.0837 125.485 76.3737 125.485ZM88.0539 122.395C88.1839 122.395 88.2839 122.46 88.3539 122.59C88.4239 122.72 88.4589 122.885 88.4589 123.085C88.4589 123.565 88.3139 123.85 88.0239 123.94C87.4239 124.15 86.7639 124.27 86.0439 124.3C85.8539 125.14 85.4789 125.815 84.9189 126.325C84.3589 126.825 83.7239 127.075 83.0139 127.075C82.4139 127.075 81.8989 126.93 81.4689 126.64C81.0489 126.35 80.7289 125.965 80.5089 125.485C80.2889 125.005 80.1789 124.485 80.1789 123.925C80.1789 123.165 80.3239 122.49 80.6139 121.9C80.9039 121.3 81.3039 120.835 81.8139 120.505C82.3239 120.165 82.8889 119.995 83.5089 119.995C84.2689 119.995 84.8789 120.26 85.3389 120.79C85.8089 121.31 86.0839 121.955 86.1639 122.725C86.6339 122.695 87.1939 122.595 87.8439 122.425C87.9239 122.405 87.9939 122.395 88.0539 122.395ZM83.1339 125.485C83.4539 125.485 83.7289 125.355 83.9589 125.095C84.1989 124.835 84.3589 124.46 84.4389 123.97C84.1289 123.76 83.8889 123.485 83.7189 123.145C83.5589 122.805 83.4789 122.445 83.4789 122.065C83.4789 121.905 83.4939 121.745 83.5239 121.585H83.4489C83.0489 121.585 82.7139 121.78 82.4439 122.17C82.1839 122.55 82.0539 123.09 82.0539 123.79C82.0539 124.34 82.1589 124.76 82.3689 125.05C82.5889 125.34 82.8439 125.485 83.1339 125.485ZM88.2359 127.075C87.8559 127.075 87.5859 126.875 87.4259 126.475C87.2759 126.075 87.2009 125.435 87.2009 124.555C87.2009 123.255 87.3859 122.02 87.7559 120.85C87.8459 120.56 87.9909 120.35 88.1909 120.22C88.4009 120.08 88.6909 120.01 89.0609 120.01C89.2609 120.01 89.4009 120.035 89.4809 120.085C89.5609 120.135 89.6009 120.23 89.6009 120.37C89.6009 120.53 89.5259 120.89 89.3759 121.45C89.2759 121.85 89.1959 122.2 89.1359 122.5C89.0759 122.8 89.0259 123.17 88.9859 123.61C89.3159 122.75 89.6859 122.05 90.0959 121.51C90.5059 120.97 90.9059 120.585 91.2959 120.355C91.6959 120.125 92.0609 120.01 92.3909 120.01C93.0409 120.01 93.3659 120.335 93.3659 120.985C93.3659 121.375 93.2559 122.08 93.0359 123.1C92.8459 123.97 92.7509 124.545 92.7509 124.825C92.7509 125.225 92.8959 125.425 93.1859 125.425C93.3859 125.425 93.6209 125.305 93.8909 125.065C94.1709 124.815 94.5409 124.415 95.0009 123.865C95.1209 123.725 95.2559 123.655 95.4059 123.655C95.5359 123.655 95.6359 123.715 95.7059 123.835C95.7859 123.955 95.8259 124.12 95.8259 124.33C95.8259 124.73 95.7309 125.04 95.5409 125.26C95.1109 125.79 94.6459 126.225 94.1459 126.565C93.6559 126.905 93.0959 127.075 92.4659 127.075C91.9559 127.075 91.5709 126.93 91.3109 126.64C91.0509 126.34 90.9209 125.91 90.9209 125.35C90.9209 125.07 90.9909 124.57 91.1309 123.85C91.2609 123.22 91.3259 122.785 91.3259 122.545C91.3259 122.385 91.2709 122.305 91.1609 122.305C91.0309 122.305 90.8459 122.475 90.6059 122.815C90.3759 123.145 90.1359 123.585 89.8859 124.135C89.6459 124.685 89.4509 125.265 89.3009 125.875C89.1909 126.345 89.0609 126.665 88.9109 126.835C88.7709 126.995 88.5459 127.075 88.2359 127.075ZM96.1429 127.075C95.6929 127.075 95.3229 126.87 95.0329 126.46C94.7529 126.04 94.6129 125.52 94.6129 124.9C94.6129 124.15 94.6629 123.465 94.7629 122.845C94.8629 122.215 95.0279 121.55 95.2579 120.85C95.3579 120.55 95.4979 120.335 95.6779 120.205C95.8579 120.075 96.1429 120.01 96.5329 120.01C96.7529 120.01 96.9029 120.045 96.9829 120.115C97.0729 120.185 97.1179 120.29 97.1179 120.43C97.1179 120.51 97.0629 120.78 96.9529 121.24C96.8529 121.61 96.7729 121.945 96.7129 122.245C96.5129 123.295 96.4129 123.995 96.4129 124.345C96.4129 124.555 96.4379 124.705 96.4879 124.795C96.5379 124.875 96.6179 124.915 96.7279 124.915C96.8779 124.915 97.0629 124.765 97.2829 124.465C97.5129 124.165 97.7529 123.71 98.0029 123.1C98.2629 122.49 98.5129 121.74 98.7529 120.85C98.8329 120.55 98.9529 120.335 99.1129 120.205C99.2829 120.075 99.5329 120.01 99.8629 120.01C100.093 120.01 100.253 120.04 100.343 120.1C100.433 120.15 100.478 120.25 100.478 120.4C100.478 120.65 100.353 121.335 100.103 122.455C99.8229 123.735 99.6829 124.525 99.6829 124.825C99.6829 125.015 99.7229 125.165 99.8029 125.275C99.8829 125.375 99.9879 125.425 100.118 125.425C100.318 125.425 100.553 125.305 100.823 125.065C101.103 124.815 101.473 124.415 101.933 123.865C102.053 123.725 102.188 123.655 102.338 123.655C102.468 123.655 102.568 123.715 102.638 123.835C102.718 123.955 102.758 124.12 102.758 124.33C102.758 124.73 102.663 125.04 102.473 125.26C102.043 125.79 101.578 126.225 101.078 126.565C100.588 126.905 100.028 127.075 99.3979 127.075C98.9179 127.075 98.5629 126.89 98.3329 126.52C98.1129 126.15 98.0029 125.63 98.0029 124.96C97.8329 125.64 97.5779 126.165 97.2379 126.535C96.8979 126.895 96.5329 127.075 96.1429 127.075ZM104.331 127.405C103.811 127.405 103.411 127.285 103.131 127.045C102.861 126.805 102.726 126.535 102.726 126.235C102.726 125.975 102.821 125.75 103.011 125.56C103.201 125.37 103.481 125.275 103.851 125.275C103.981 125.275 104.131 125.29 104.301 125.32C104.481 125.34 104.616 125.355 104.706 125.365C104.696 125.105 104.636 124.86 104.526 124.63C104.426 124.4 104.296 124.18 104.136 123.97C103.976 123.75 103.826 123.56 103.686 123.4C103.376 123.99 103.066 124.48 102.756 124.87C102.456 125.26 102.126 125.63 101.766 125.98C101.586 126.16 101.396 126.25 101.196 126.25C101.036 126.25 100.906 126.195 100.806 126.085C100.706 125.965 100.656 125.82 100.656 125.65C100.656 125.45 100.726 125.265 100.866 125.095L101.061 124.855C101.611 124.175 102.026 123.615 102.306 123.175C102.486 122.885 102.666 122.54 102.846 122.14C103.036 121.74 103.281 121.195 103.581 120.505C103.771 120.065 104.166 119.845 104.766 119.845C105.046 119.845 105.241 119.87 105.351 119.92C105.461 119.97 105.516 120.05 105.516 120.16C105.516 120.22 105.496 120.315 105.456 120.445C105.416 120.575 105.361 120.705 105.291 120.835C105.111 121.195 105.021 121.5 105.021 121.75C105.021 121.9 105.071 122.065 105.171 122.245C105.281 122.425 105.446 122.65 105.666 122.92C105.986 123.34 106.226 123.7 106.386 124C106.556 124.29 106.641 124.61 106.641 124.96C106.641 125.38 106.541 125.78 106.341 126.16C106.151 126.53 105.881 126.83 105.531 127.06C105.181 127.29 104.781 127.405 104.331 127.405ZM114.279 127.075C113.299 127.075 112.534 126.8 111.984 126.25C111.444 125.69 111.174 124.955 111.174 124.045C111.174 123.235 111.334 122.525 111.654 121.915C111.974 121.305 112.389 120.835 112.899 120.505C113.409 120.175 113.944 120.01 114.504 120.01C115.054 120.01 115.479 120.175 115.779 120.505C116.089 120.825 116.244 121.24 116.244 121.75C116.244 122.17 116.149 122.525 115.959 122.815C115.779 123.105 115.539 123.25 115.239 123.25C115.049 123.25 114.894 123.205 114.774 123.115C114.664 123.025 114.609 122.9 114.609 122.74C114.609 122.67 114.619 122.59 114.639 122.5C114.659 122.41 114.674 122.345 114.684 122.305C114.734 122.155 114.759 122.015 114.759 121.885C114.759 121.755 114.724 121.655 114.654 121.585C114.594 121.515 114.504 121.48 114.384 121.48C114.154 121.48 113.939 121.585 113.739 121.795C113.539 121.995 113.379 122.27 113.259 122.62C113.139 122.97 113.079 123.355 113.079 123.775C113.079 124.935 113.584 125.515 114.594 125.515C115.004 125.515 115.444 125.38 115.914 125.11C116.394 124.83 116.864 124.415 117.324 123.865C117.444 123.725 117.579 123.655 117.729 123.655C117.859 123.655 117.959 123.715 118.029 123.835C118.109 123.955 118.149 124.12 118.149 124.33C118.149 124.71 118.054 125.02 117.864 125.26C117.394 125.84 116.829 126.29 116.169 126.61C115.519 126.92 114.889 127.075 114.279 127.075ZM118.635 127.075C118.015 127.075 117.52 126.85 117.15 126.4C116.78 125.95 116.595 125.36 116.595 124.63C116.595 123.83 116.78 123.075 117.15 122.365C117.52 121.645 118.01 121.07 118.62 120.64C119.24 120.2 119.895 119.98 120.585 119.98C120.805 119.98 120.95 120.025 121.02 120.115C121.1 120.195 121.165 120.345 121.215 120.565C121.425 120.525 121.645 120.505 121.875 120.505C122.365 120.505 122.61 120.68 122.61 121.03C122.61 121.24 122.535 121.74 122.385 122.53C122.155 123.68 122.04 124.48 122.04 124.93C122.04 125.08 122.075 125.2 122.145 125.29C122.225 125.38 122.325 125.425 122.445 125.425C122.635 125.425 122.865 125.305 123.135 125.065C123.405 124.815 123.77 124.415 124.23 123.865C124.35 123.725 124.485 123.655 124.635 123.655C124.765 123.655 124.865 123.715 124.935 123.835C125.015 123.955 125.055 124.12 125.055 124.33C125.055 124.73 124.96 125.04 124.77 125.26C124.36 125.77 123.925 126.2 123.465 126.55C123.005 126.9 122.56 127.075 122.13 127.075C121.8 127.075 121.495 126.965 121.215 126.745C120.945 126.515 120.74 126.205 120.6 125.815C120.08 126.655 119.425 127.075 118.635 127.075ZM119.175 125.56C119.395 125.56 119.605 125.43 119.805 125.17C120.005 124.91 120.15 124.565 120.24 124.135L120.795 121.375C120.375 121.385 119.985 121.545 119.625 121.855C119.275 122.155 118.995 122.555 118.785 123.055C118.575 123.555 118.47 124.085 118.47 124.645C118.47 124.955 118.53 125.185 118.65 125.335C118.78 125.485 118.955 125.56 119.175 125.56ZM124.901 127.075C124.521 127.075 124.251 126.875 124.091 126.475C123.941 126.075 123.866 125.435 123.866 124.555C123.866 123.255 124.051 122.02 124.421 120.85C124.511 120.56 124.656 120.35 124.856 120.22C125.066 120.08 125.356 120.01 125.726 120.01C125.926 120.01 126.066 120.035 126.146 120.085C126.226 120.135 126.266 120.23 126.266 120.37C126.266 120.53 126.191 120.89 126.041 121.45C125.941 121.85 125.861 122.2 125.801 122.5C125.741 122.8 125.691 123.17 125.651 123.61C125.981 122.75 126.351 122.05 126.761 121.51C127.171 120.97 127.571 120.585 127.961 120.355C128.361 120.125 128.726 120.01 129.056 120.01C129.706 120.01 130.031 120.335 130.031 120.985C130.031 121.375 129.921 122.08 129.701 123.1C129.511 123.97 129.416 124.545 129.416 124.825C129.416 125.225 129.561 125.425 129.851 125.425C130.051 125.425 130.286 125.305 130.556 125.065C130.836 124.815 131.206 124.415 131.666 123.865C131.786 123.725 131.921 123.655 132.071 123.655C132.201 123.655 132.301 123.715 132.371 123.835C132.451 123.955 132.491 124.12 132.491 124.33C132.491 124.73 132.396 125.04 132.206 125.26C131.776 125.79 131.311 126.225 130.811 126.565C130.321 126.905 129.761 127.075 129.131 127.075C128.621 127.075 128.236 126.93 127.976 126.64C127.716 126.34 127.586 125.91 127.586 125.35C127.586 125.07 127.656 124.57 127.796 123.85C127.926 123.22 127.991 122.785 127.991 122.545C127.991 122.385 127.936 122.305 127.826 122.305C127.696 122.305 127.511 122.475 127.271 122.815C127.041 123.145 126.801 123.585 126.551 124.135C126.311 124.685 126.116 125.265 125.966 125.875C125.856 126.345 125.726 126.665 125.576 126.835C125.436 126.995 125.211 127.075 124.901 127.075ZM139.798 123.655C139.928 123.655 140.028 123.715 140.098 123.835C140.178 123.955 140.218 124.12 140.218 124.33C140.218 124.73 140.123 125.04 139.933 125.26C139.523 125.76 139.073 126.19 138.583 126.55C138.093 126.9 137.608 127.075 137.128 127.075C136.368 127.075 135.788 126.63 135.388 125.74C134.968 126.27 134.598 126.625 134.278 126.805C133.968 126.985 133.603 127.075 133.183 127.075C132.573 127.075 132.068 126.85 131.668 126.4C131.278 125.94 131.083 125.345 131.083 124.615C131.083 123.815 131.253 123.075 131.593 122.395C131.933 121.705 132.398 121.145 132.988 120.715C133.588 120.275 134.258 120.015 134.998 119.935C135.188 117.995 135.548 116.34 136.078 114.97C136.618 113.59 137.323 112.9 138.193 112.9C138.623 112.9 138.978 113.095 139.258 113.485C139.548 113.875 139.693 114.465 139.693 115.255C139.693 116.375 139.418 117.685 138.868 119.185C138.318 120.685 137.583 122.225 136.663 123.805C136.703 124.385 136.788 124.8 136.918 125.05C137.058 125.3 137.233 125.425 137.443 125.425C137.713 125.425 137.988 125.305 138.268 125.065C138.548 124.825 138.923 124.425 139.393 123.865C139.513 123.725 139.648 123.655 139.798 123.655ZM138.028 114.37C137.838 114.37 137.648 114.71 137.458 115.39C137.268 116.06 137.103 116.94 136.963 118.03C136.833 119.12 136.738 120.26 136.678 121.45C137.798 119.01 138.358 117.05 138.358 115.57C138.358 115.19 138.323 114.895 138.253 114.685C138.193 114.475 138.118 114.37 138.028 114.37ZM133.708 125.56C133.898 125.56 134.088 125.485 134.278 125.335C134.468 125.175 134.708 124.885 134.998 124.465C134.898 123.925 134.848 123.32 134.848 122.65C134.848 122.41 134.858 122.02 134.878 121.48C134.328 121.65 133.868 122.02 133.498 122.59C133.138 123.15 132.958 123.775 132.958 124.465C132.958 125.195 133.208 125.56 133.708 125.56ZM144.247 120.01C144.477 120.01 144.637 120.04 144.727 120.1C144.817 120.16 144.862 120.26 144.862 120.4C144.862 120.64 144.732 121.495 144.472 122.965C144.242 124.375 144.107 125.21 144.067 125.47C143.697 128.04 143.187 130.075 142.537 131.575C141.887 133.075 141.022 133.825 139.942 133.825C139.432 133.825 139.017 133.665 138.697 133.345C138.377 133.035 138.217 132.625 138.217 132.115C138.217 131.645 138.322 131.165 138.532 130.675C138.752 130.185 139.152 129.62 139.732 128.98C140.322 128.35 141.152 127.625 142.222 126.805L142.267 126.46C142.337 126.09 142.417 125.56 142.507 124.87C142.307 125.59 142.027 126.14 141.667 126.52C141.307 126.89 140.927 127.075 140.527 127.075C140.077 127.075 139.707 126.87 139.417 126.46C139.137 126.04 138.997 125.52 138.997 124.9C138.997 124.15 139.047 123.465 139.147 122.845C139.247 122.215 139.412 121.55 139.642 120.85C139.742 120.55 139.882 120.335 140.062 120.205C140.242 120.075 140.527 120.01 140.917 120.01C141.137 120.01 141.287 120.045 141.367 120.115C141.457 120.185 141.502 120.29 141.502 120.43C141.502 120.51 141.447 120.78 141.337 121.24C141.237 121.61 141.157 121.945 141.097 122.245C141.017 122.655 140.947 123.05 140.887 123.43C140.827 123.8 140.797 124.105 140.797 124.345C140.797 124.725 140.902 124.915 141.112 124.915C141.262 124.915 141.447 124.765 141.667 124.465C141.897 124.165 142.137 123.71 142.387 123.1C142.647 122.49 142.897 121.74 143.137 120.85C143.217 120.55 143.337 120.335 143.497 120.205C143.667 120.075 143.917 120.01 144.247 120.01ZM140.107 132.37C140.357 132.37 140.637 132.08 140.947 131.5C141.257 130.92 141.567 129.955 141.877 128.605C141.107 129.255 140.547 129.845 140.197 130.375C139.857 130.915 139.687 131.385 139.687 131.785C139.687 131.955 139.717 132.095 139.777 132.205C139.847 132.315 139.957 132.37 140.107 132.37ZM147.709 123.49C147.509 123.49 147.344 123.445 147.214 123.355C147.084 123.265 147.019 123.125 147.019 122.935L147.034 122.815C147.204 121.695 147.434 120.42 147.724 118.99C148.014 117.56 148.284 116.325 148.534 115.285C148.694 114.645 149.129 114.325 149.839 114.325C150.479 114.325 150.799 114.53 150.799 114.94C150.799 115.03 150.784 115.13 150.754 115.24C150.494 116.3 150.149 117.585 149.719 119.095C149.289 120.595 148.879 121.9 148.489 123.01C148.379 123.33 148.119 123.49 147.709 123.49ZM147.139 127.075C146.699 127.075 146.364 126.955 146.134 126.715C145.914 126.475 145.804 126.16 145.804 125.77C145.804 125.32 145.929 124.96 146.179 124.69C146.439 124.42 146.799 124.285 147.259 124.285C147.699 124.285 148.029 124.395 148.249 124.615C148.479 124.825 148.594 125.14 148.594 125.56C148.594 126.02 148.464 126.39 148.204 126.67C147.944 126.94 147.589 127.075 147.139 127.075Z" fill="#1E90FF"/>
</svg>
