<svg width="196" height="162" viewBox="0 0 196 162" fill="none" xmlns="http://www.w3.org/2000/svg">
<ellipse cx="97.8295" cy="80.8609" rx="27.1925" ry="23.122" transform="rotate(-34.4399 97.8295 80.8609)" fill="#FF1EBC"/>
<path d="M126.383 66.73C122.262 67.3422 119.244 62.9408 121.3 59.3169L143.04 21.0005C144.863 17.7867 149.422 17.5928 151.512 20.6402L173.348 52.4835C175.438 55.5309 173.614 59.714 169.959 60.257L126.383 66.73Z" fill="#FF1EBC"/>
<path d="M69.2755 94.992C73.3968 94.3798 76.415 98.7813 74.3589 102.405L52.6192 140.722C50.7958 143.935 46.2365 144.129 44.1468 141.082L22.3106 109.239C20.2209 106.191 22.0446 102.008 25.6995 101.465L69.2755 94.992Z" fill="#FF1EBC"/>
<circle cx="84.5138" cy="80.6466" r="5.60534" transform="rotate(-34.4399 84.5138 80.6466)" fill="white"/>
<path d="M102.294 140.395C102.424 140.395 102.524 140.46 102.594 140.59C102.664 140.72 102.699 140.885 102.699 141.085C102.699 141.335 102.664 141.53 102.594 141.67C102.524 141.8 102.414 141.89 102.264 141.94C101.664 142.15 101.004 142.27 100.284 142.3C100.084 143.13 99.7038 143.8 99.1438 144.31C98.5938 144.82 97.9838 145.075 97.3138 145.075C96.3038 145.075 95.5688 144.69 95.1088 143.92C94.6488 143.15 94.4188 142.035 94.4188 140.575C94.4188 139.285 94.5788 137.885 94.8988 136.375C95.2188 134.855 95.6838 133.565 96.2938 132.505C96.9138 131.435 97.6488 130.9 98.4988 130.9C98.9588 130.9 99.3288 131.1 99.6088 131.5C99.8888 131.89 100.029 132.4 100.029 133.03C100.029 133.85 99.8738 134.665 99.5638 135.475C99.2538 136.285 98.7388 137.135 98.0188 138.025C98.6888 138.075 99.2338 138.355 99.6538 138.865C100.074 139.365 100.324 139.985 100.404 140.725C100.874 140.695 101.434 140.595 102.084 140.425C102.144 140.405 102.214 140.395 102.294 140.395ZM98.1538 132.385C97.9538 132.385 97.7338 132.685 97.4938 133.285C97.2638 133.875 97.0488 134.68 96.8488 135.7C96.6488 136.72 96.4988 137.835 96.3988 139.045C97.0588 137.835 97.5838 136.77 97.9738 135.85C98.3738 134.92 98.5738 134.095 98.5738 133.375C98.5738 133.055 98.5338 132.81 98.4538 132.64C98.3838 132.47 98.2838 132.385 98.1538 132.385ZM97.3738 143.485C97.6838 143.485 97.9588 143.355 98.1988 143.095C98.4388 142.835 98.5988 142.46 98.6788 141.97C98.3688 141.76 98.1288 141.485 97.9588 141.145C97.7988 140.805 97.7188 140.445 97.7188 140.065C97.7188 139.925 97.7388 139.735 97.7788 139.495H97.7338C97.3238 139.495 96.9788 139.7 96.6988 140.11C96.4288 140.51 96.2938 141.05 96.2938 141.73C96.2938 142.3 96.3988 142.735 96.6088 143.035C96.8288 143.335 97.0838 143.485 97.3738 143.485ZM109.054 140.395C109.184 140.395 109.284 140.46 109.354 140.59C109.424 140.72 109.459 140.885 109.459 141.085C109.459 141.565 109.314 141.85 109.024 141.94C108.424 142.15 107.764 142.27 107.044 142.3C106.854 143.14 106.479 143.815 105.919 144.325C105.359 144.825 104.724 145.075 104.014 145.075C103.414 145.075 102.899 144.93 102.469 144.64C102.049 144.35 101.729 143.965 101.509 143.485C101.289 143.005 101.179 142.485 101.179 141.925C101.179 141.165 101.324 140.49 101.614 139.9C101.904 139.3 102.304 138.835 102.814 138.505C103.324 138.165 103.889 137.995 104.509 137.995C105.269 137.995 105.879 138.26 106.339 138.79C106.809 139.31 107.084 139.955 107.164 140.725C107.634 140.695 108.194 140.595 108.844 140.425C108.924 140.405 108.994 140.395 109.054 140.395ZM104.134 143.485C104.454 143.485 104.729 143.355 104.959 143.095C105.199 142.835 105.359 142.46 105.439 141.97C105.129 141.76 104.889 141.485 104.719 141.145C104.559 140.805 104.479 140.445 104.479 140.065C104.479 139.905 104.494 139.745 104.524 139.585H104.449C104.049 139.585 103.714 139.78 103.444 140.17C103.184 140.55 103.054 141.09 103.054 141.79C103.054 142.34 103.159 142.76 103.369 143.05C103.589 143.34 103.844 143.485 104.134 143.485ZM109.236 145.075C108.856 145.075 108.586 144.875 108.426 144.475C108.276 144.075 108.201 143.435 108.201 142.555C108.201 141.255 108.386 140.02 108.756 138.85C108.846 138.56 108.991 138.35 109.191 138.22C109.401 138.08 109.691 138.01 110.061 138.01C110.261 138.01 110.401 138.035 110.481 138.085C110.561 138.135 110.601 138.23 110.601 138.37C110.601 138.53 110.526 138.89 110.376 139.45C110.276 139.85 110.196 140.2 110.136 140.5C110.076 140.8 110.026 141.17 109.986 141.61C110.316 140.75 110.686 140.05 111.096 139.51C111.506 138.97 111.906 138.585 112.296 138.355C112.696 138.125 113.061 138.01 113.391 138.01C114.041 138.01 114.366 138.335 114.366 138.985C114.366 139.375 114.256 140.08 114.036 141.1C113.846 141.97 113.751 142.545 113.751 142.825C113.751 143.225 113.896 143.425 114.186 143.425C114.386 143.425 114.621 143.305 114.891 143.065C115.171 142.815 115.541 142.415 116.001 141.865C116.121 141.725 116.256 141.655 116.406 141.655C116.536 141.655 116.636 141.715 116.706 141.835C116.786 141.955 116.826 142.12 116.826 142.33C116.826 142.73 116.731 143.04 116.541 143.26C116.111 143.79 115.646 144.225 115.146 144.565C114.656 144.905 114.096 145.075 113.466 145.075C112.956 145.075 112.571 144.93 112.311 144.64C112.051 144.34 111.921 143.91 111.921 143.35C111.921 143.07 111.991 142.57 112.131 141.85C112.261 141.22 112.326 140.785 112.326 140.545C112.326 140.385 112.271 140.305 112.161 140.305C112.031 140.305 111.846 140.475 111.606 140.815C111.376 141.145 111.136 141.585 110.886 142.135C110.646 142.685 110.451 143.265 110.301 143.875C110.191 144.345 110.061 144.665 109.911 144.835C109.771 144.995 109.546 145.075 109.236 145.075ZM117.143 145.075C116.693 145.075 116.323 144.87 116.033 144.46C115.753 144.04 115.613 143.52 115.613 142.9C115.613 142.15 115.663 141.465 115.763 140.845C115.863 140.215 116.028 139.55 116.258 138.85C116.358 138.55 116.498 138.335 116.678 138.205C116.858 138.075 117.143 138.01 117.533 138.01C117.753 138.01 117.903 138.045 117.983 138.115C118.073 138.185 118.118 138.29 118.118 138.43C118.118 138.51 118.063 138.78 117.953 139.24C117.853 139.61 117.773 139.945 117.713 140.245C117.513 141.295 117.413 141.995 117.413 142.345C117.413 142.555 117.438 142.705 117.488 142.795C117.538 142.875 117.618 142.915 117.728 142.915C117.878 142.915 118.063 142.765 118.283 142.465C118.513 142.165 118.753 141.71 119.003 141.1C119.263 140.49 119.513 139.74 119.753 138.85C119.833 138.55 119.953 138.335 120.113 138.205C120.283 138.075 120.533 138.01 120.863 138.01C121.093 138.01 121.253 138.04 121.343 138.1C121.433 138.15 121.478 138.25 121.478 138.4C121.478 138.65 121.353 139.335 121.103 140.455C120.823 141.735 120.683 142.525 120.683 142.825C120.683 143.015 120.723 143.165 120.803 143.275C120.883 143.375 120.988 143.425 121.118 143.425C121.318 143.425 121.553 143.305 121.823 143.065C122.103 142.815 122.473 142.415 122.933 141.865C123.053 141.725 123.188 141.655 123.338 141.655C123.468 141.655 123.568 141.715 123.638 141.835C123.718 141.955 123.758 142.12 123.758 142.33C123.758 142.73 123.663 143.04 123.473 143.26C123.043 143.79 122.578 144.225 122.078 144.565C121.588 144.905 121.028 145.075 120.398 145.075C119.918 145.075 119.563 144.89 119.333 144.52C119.113 144.15 119.003 143.63 119.003 142.96C118.833 143.64 118.578 144.165 118.238 144.535C117.898 144.895 117.533 145.075 117.143 145.075ZM125.331 145.405C124.811 145.405 124.411 145.285 124.131 145.045C123.861 144.805 123.726 144.535 123.726 144.235C123.726 143.975 123.821 143.75 124.011 143.56C124.201 143.37 124.481 143.275 124.851 143.275C124.981 143.275 125.131 143.29 125.301 143.32C125.481 143.34 125.616 143.355 125.706 143.365C125.696 143.105 125.636 142.86 125.526 142.63C125.426 142.4 125.296 142.18 125.136 141.97C124.976 141.75 124.826 141.56 124.686 141.4C124.376 141.99 124.066 142.48 123.756 142.87C123.456 143.26 123.126 143.63 122.766 143.98C122.586 144.16 122.396 144.25 122.196 144.25C122.036 144.25 121.906 144.195 121.806 144.085C121.706 143.965 121.656 143.82 121.656 143.65C121.656 143.45 121.726 143.265 121.866 143.095L122.061 142.855C122.611 142.175 123.026 141.615 123.306 141.175C123.486 140.885 123.666 140.54 123.846 140.14C124.036 139.74 124.281 139.195 124.581 138.505C124.771 138.065 125.166 137.845 125.766 137.845C126.046 137.845 126.241 137.87 126.351 137.92C126.461 137.97 126.516 138.05 126.516 138.16C126.516 138.22 126.496 138.315 126.456 138.445C126.416 138.575 126.361 138.705 126.291 138.835C126.111 139.195 126.021 139.5 126.021 139.75C126.021 139.9 126.071 140.065 126.171 140.245C126.281 140.425 126.446 140.65 126.666 140.92C126.986 141.34 127.226 141.7 127.386 142C127.556 142.29 127.641 142.61 127.641 142.96C127.641 143.38 127.541 143.78 127.341 144.16C127.151 144.53 126.881 144.83 126.531 145.06C126.181 145.29 125.781 145.405 125.331 145.405ZM135.279 145.075C134.299 145.075 133.534 144.8 132.984 144.25C132.444 143.69 132.174 142.955 132.174 142.045C132.174 141.235 132.334 140.525 132.654 139.915C132.974 139.305 133.389 138.835 133.899 138.505C134.409 138.175 134.944 138.01 135.504 138.01C136.054 138.01 136.479 138.175 136.779 138.505C137.089 138.825 137.244 139.24 137.244 139.75C137.244 140.17 137.149 140.525 136.959 140.815C136.779 141.105 136.539 141.25 136.239 141.25C136.049 141.25 135.894 141.205 135.774 141.115C135.664 141.025 135.609 140.9 135.609 140.74C135.609 140.67 135.619 140.59 135.639 140.5C135.659 140.41 135.674 140.345 135.684 140.305C135.734 140.155 135.759 140.015 135.759 139.885C135.759 139.755 135.724 139.655 135.654 139.585C135.594 139.515 135.504 139.48 135.384 139.48C135.154 139.48 134.939 139.585 134.739 139.795C134.539 139.995 134.379 140.27 134.259 140.62C134.139 140.97 134.079 141.355 134.079 141.775C134.079 142.935 134.584 143.515 135.594 143.515C136.004 143.515 136.444 143.38 136.914 143.11C137.394 142.83 137.864 142.415 138.324 141.865C138.444 141.725 138.579 141.655 138.729 141.655C138.859 141.655 138.959 141.715 139.029 141.835C139.109 141.955 139.149 142.12 139.149 142.33C139.149 142.71 139.054 143.02 138.864 143.26C138.394 143.84 137.829 144.29 137.169 144.61C136.519 144.92 135.889 145.075 135.279 145.075ZM139.635 145.075C139.015 145.075 138.52 144.85 138.15 144.4C137.78 143.95 137.595 143.36 137.595 142.63C137.595 141.83 137.78 141.075 138.15 140.365C138.52 139.645 139.01 139.07 139.62 138.64C140.24 138.2 140.895 137.98 141.585 137.98C141.805 137.98 141.95 138.025 142.02 138.115C142.1 138.195 142.165 138.345 142.215 138.565C142.425 138.525 142.645 138.505 142.875 138.505C143.365 138.505 143.61 138.68 143.61 139.03C143.61 139.24 143.535 139.74 143.385 140.53C143.155 141.68 143.04 142.48 143.04 142.93C143.04 143.08 143.075 143.2 143.145 143.29C143.225 143.38 143.325 143.425 143.445 143.425C143.635 143.425 143.865 143.305 144.135 143.065C144.405 142.815 144.77 142.415 145.23 141.865C145.35 141.725 145.485 141.655 145.635 141.655C145.765 141.655 145.865 141.715 145.935 141.835C146.015 141.955 146.055 142.12 146.055 142.33C146.055 142.73 145.96 143.04 145.77 143.26C145.36 143.77 144.925 144.2 144.465 144.55C144.005 144.9 143.56 145.075 143.13 145.075C142.8 145.075 142.495 144.965 142.215 144.745C141.945 144.515 141.74 144.205 141.6 143.815C141.08 144.655 140.425 145.075 139.635 145.075ZM140.175 143.56C140.395 143.56 140.605 143.43 140.805 143.17C141.005 142.91 141.15 142.565 141.24 142.135L141.795 139.375C141.375 139.385 140.985 139.545 140.625 139.855C140.275 140.155 139.995 140.555 139.785 141.055C139.575 141.555 139.47 142.085 139.47 142.645C139.47 142.955 139.53 143.185 139.65 143.335C139.78 143.485 139.955 143.56 140.175 143.56ZM145.901 145.075C145.521 145.075 145.251 144.875 145.091 144.475C144.941 144.075 144.866 143.435 144.866 142.555C144.866 141.255 145.051 140.02 145.421 138.85C145.511 138.56 145.656 138.35 145.856 138.22C146.066 138.08 146.356 138.01 146.726 138.01C146.926 138.01 147.066 138.035 147.146 138.085C147.226 138.135 147.266 138.23 147.266 138.37C147.266 138.53 147.191 138.89 147.041 139.45C146.941 139.85 146.861 140.2 146.801 140.5C146.741 140.8 146.691 141.17 146.651 141.61C146.981 140.75 147.351 140.05 147.761 139.51C148.171 138.97 148.571 138.585 148.961 138.355C149.361 138.125 149.726 138.01 150.056 138.01C150.706 138.01 151.031 138.335 151.031 138.985C151.031 139.375 150.921 140.08 150.701 141.1C150.511 141.97 150.416 142.545 150.416 142.825C150.416 143.225 150.561 143.425 150.851 143.425C151.051 143.425 151.286 143.305 151.556 143.065C151.836 142.815 152.206 142.415 152.666 141.865C152.786 141.725 152.921 141.655 153.071 141.655C153.201 141.655 153.301 141.715 153.371 141.835C153.451 141.955 153.491 142.12 153.491 142.33C153.491 142.73 153.396 143.04 153.206 143.26C152.776 143.79 152.311 144.225 151.811 144.565C151.321 144.905 150.761 145.075 150.131 145.075C149.621 145.075 149.236 144.93 148.976 144.64C148.716 144.34 148.586 143.91 148.586 143.35C148.586 143.07 148.656 142.57 148.796 141.85C148.926 141.22 148.991 140.785 148.991 140.545C148.991 140.385 148.936 140.305 148.826 140.305C148.696 140.305 148.511 140.475 148.271 140.815C148.041 141.145 147.801 141.585 147.551 142.135C147.311 142.685 147.116 143.265 146.966 143.875C146.856 144.345 146.726 144.665 146.576 144.835C146.436 144.995 146.211 145.075 145.901 145.075ZM160.798 141.655C160.928 141.655 161.028 141.715 161.098 141.835C161.178 141.955 161.218 142.12 161.218 142.33C161.218 142.73 161.123 143.04 160.933 143.26C160.523 143.76 160.073 144.19 159.583 144.55C159.093 144.9 158.608 145.075 158.128 145.075C157.368 145.075 156.788 144.63 156.388 143.74C155.968 144.27 155.598 144.625 155.278 144.805C154.968 144.985 154.603 145.075 154.183 145.075C153.573 145.075 153.068 144.85 152.668 144.4C152.278 143.94 152.083 143.345 152.083 142.615C152.083 141.815 152.253 141.075 152.593 140.395C152.933 139.705 153.398 139.145 153.988 138.715C154.588 138.275 155.258 138.015 155.998 137.935C156.188 135.995 156.548 134.34 157.078 132.97C157.618 131.59 158.323 130.9 159.193 130.9C159.623 130.9 159.978 131.095 160.258 131.485C160.548 131.875 160.693 132.465 160.693 133.255C160.693 134.375 160.418 135.685 159.868 137.185C159.318 138.685 158.583 140.225 157.663 141.805C157.703 142.385 157.788 142.8 157.918 143.05C158.058 143.3 158.233 143.425 158.443 143.425C158.713 143.425 158.988 143.305 159.268 143.065C159.548 142.825 159.923 142.425 160.393 141.865C160.513 141.725 160.648 141.655 160.798 141.655ZM159.028 132.37C158.838 132.37 158.648 132.71 158.458 133.39C158.268 134.06 158.103 134.94 157.963 136.03C157.833 137.12 157.738 138.26 157.678 139.45C158.798 137.01 159.358 135.05 159.358 133.57C159.358 133.19 159.323 132.895 159.253 132.685C159.193 132.475 159.118 132.37 159.028 132.37ZM154.708 143.56C154.898 143.56 155.088 143.485 155.278 143.335C155.468 143.175 155.708 142.885 155.998 142.465C155.898 141.925 155.848 141.32 155.848 140.65C155.848 140.41 155.858 140.02 155.878 139.48C155.328 139.65 154.868 140.02 154.498 140.59C154.138 141.15 153.958 141.775 153.958 142.465C153.958 143.195 154.208 143.56 154.708 143.56ZM165.247 138.01C165.477 138.01 165.637 138.04 165.727 138.1C165.817 138.16 165.862 138.26 165.862 138.4C165.862 138.64 165.732 139.495 165.472 140.965C165.242 142.375 165.107 143.21 165.067 143.47C164.697 146.04 164.187 148.075 163.537 149.575C162.887 151.075 162.022 151.825 160.942 151.825C160.432 151.825 160.017 151.665 159.697 151.345C159.377 151.035 159.217 150.625 159.217 150.115C159.217 149.645 159.322 149.165 159.532 148.675C159.752 148.185 160.152 147.62 160.732 146.98C161.322 146.35 162.152 145.625 163.222 144.805L163.267 144.46C163.337 144.09 163.417 143.56 163.507 142.87C163.307 143.59 163.027 144.14 162.667 144.52C162.307 144.89 161.927 145.075 161.527 145.075C161.077 145.075 160.707 144.87 160.417 144.46C160.137 144.04 159.997 143.52 159.997 142.9C159.997 142.15 160.047 141.465 160.147 140.845C160.247 140.215 160.412 139.55 160.642 138.85C160.742 138.55 160.882 138.335 161.062 138.205C161.242 138.075 161.527 138.01 161.917 138.01C162.137 138.01 162.287 138.045 162.367 138.115C162.457 138.185 162.502 138.29 162.502 138.43C162.502 138.51 162.447 138.78 162.337 139.24C162.237 139.61 162.157 139.945 162.097 140.245C162.017 140.655 161.947 141.05 161.887 141.43C161.827 141.8 161.797 142.105 161.797 142.345C161.797 142.725 161.902 142.915 162.112 142.915C162.262 142.915 162.447 142.765 162.667 142.465C162.897 142.165 163.137 141.71 163.387 141.1C163.647 140.49 163.897 139.74 164.137 138.85C164.217 138.55 164.337 138.335 164.497 138.205C164.667 138.075 164.917 138.01 165.247 138.01ZM161.107 150.37C161.357 150.37 161.637 150.08 161.947 149.5C162.257 148.92 162.567 147.955 162.877 146.605C162.107 147.255 161.547 147.845 161.197 148.375C160.857 148.915 160.687 149.385 160.687 149.785C160.687 149.955 160.717 150.095 160.777 150.205C160.847 150.315 160.957 150.37 161.107 150.37ZM168.709 141.49C168.509 141.49 168.344 141.445 168.214 141.355C168.084 141.265 168.019 141.125 168.019 140.935L168.034 140.815C168.204 139.695 168.434 138.42 168.724 136.99C169.014 135.56 169.284 134.325 169.534 133.285C169.694 132.645 170.129 132.325 170.839 132.325C171.479 132.325 171.799 132.53 171.799 132.94C171.799 133.03 171.784 133.13 171.754 133.24C171.494 134.3 171.149 135.585 170.719 137.095C170.289 138.595 169.879 139.9 169.489 141.01C169.379 141.33 169.119 141.49 168.709 141.49ZM168.139 145.075C167.699 145.075 167.364 144.955 167.134 144.715C166.914 144.475 166.804 144.16 166.804 143.77C166.804 143.32 166.929 142.96 167.179 142.69C167.439 142.42 167.799 142.285 168.259 142.285C168.699 142.285 169.029 142.395 169.249 142.615C169.479 142.825 169.594 143.14 169.594 143.56C169.594 144.02 169.464 144.39 169.204 144.67C168.944 144.94 168.589 145.075 168.139 145.075Z" fill="#FF1EBC"/>
</svg>
