<svg width="174" height="100" viewBox="0 0 174 100" fill="none" xmlns="http://www.w3.org/2000/svg">
<path d="M88.5 96.9999C45.3 98.1999 24.1667 72.1666 19 58.9999C28.3333 49.1666 55.3 29.4999 88.5 29.4999C121.7 29.4999 147.667 49.1666 156.5 58.9999C151.833 71.1666 131.7 95.7999 88.5 96.9999Z" stroke="black" stroke-width="4"/>
<circle cx="27" cy="27" r="27" transform="matrix(1 0 0 -1 60.5 90)" fill="black"/>
<path d="M17.5 49L2 38.5" stroke="black" stroke-width="4" stroke-linecap="round"/>
<path d="M34.4385 34.3375L23.4999 20.5319" stroke="black" stroke-width="4" stroke-linecap="round"/>
<path d="M59.3528 22.6817L52.6474 7.31822" stroke="black" stroke-width="4" stroke-linecap="round"/>
<path d="M17.5 49L2 38.5" stroke="black" stroke-width="4" stroke-linecap="round"/>
<path d="M156.353 49L171.853 38.5" stroke="black" stroke-width="4" stroke-linecap="round"/>
<path d="M34.4385 34.3375L23.4999 20.5319" stroke="black" stroke-width="4" stroke-linecap="round"/>
<path d="M139.414 34.3375L150.353 20.5319" stroke="black" stroke-width="4" stroke-linecap="round"/>
<path d="M59.3528 22.6817L52.6474 7.31822" stroke="black" stroke-width="4" stroke-linecap="round"/>
<path d="M114.5 22.6817L121.205 7.31822" stroke="black" stroke-width="4" stroke-linecap="round"/>
<path d="M87.5 17L87 2" stroke="black" stroke-width="4" stroke-linecap="round"/>
</svg>
