<svg width="174" height="100" viewBox="0 0 174 100" fill="none" xmlns="http://www.w3.org/2000/svg">
<path d="M88.5 2.0401C45.3 0.840097 24.1667 26.8734 19 40.0401C28.3333 49.8734 55.3 69.5401 88.5 69.5401C121.7 69.5401 147.667 49.8734 156.5 40.0401C151.833 27.8734 131.7 3.2401 88.5 2.0401Z" stroke="black" stroke-width="4"/>
<circle cx="87.5" cy="36.04" r="27" fill="black"/>
<path d="M17.5 50.04L2 60.54" stroke="black" stroke-width="4" stroke-linecap="round"/>
<path d="M34.4386 64.7025L23.5 78.5082" stroke="black" stroke-width="4" stroke-linecap="round"/>
<path d="M59.3527 76.3583L52.6473 91.7218" stroke="black" stroke-width="4" stroke-linecap="round"/>
<path d="M17.5 50.04L2 60.54" stroke="black" stroke-width="4" stroke-linecap="round"/>
<path d="M156.353 50.04L171.853 60.54" stroke="black" stroke-width="4" stroke-linecap="round"/>
<path d="M34.4386 64.7025L23.5 78.5082" stroke="black" stroke-width="4" stroke-linecap="round"/>
<path d="M139.414 64.7025L150.353 78.5082" stroke="black" stroke-width="4" stroke-linecap="round"/>
<path d="M59.3527 76.3583L52.6473 91.7218" stroke="black" stroke-width="4" stroke-linecap="round"/>
<path d="M114.5 76.3583L121.205 91.7218" stroke="black" stroke-width="4" stroke-linecap="round"/>
<path d="M87.5 82.04L87 97.04" stroke="black" stroke-width="4" stroke-linecap="round"/>
</svg>
