<svg width="78" height="90" viewBox="0 0 78 90" fill="none" xmlns="http://www.w3.org/2000/svg">
<path d="M34.4384 5.81281C43.1382 3.84891 45.4992 11.9805 45.5922 16.2918C45.6822 19.1762 52.1904 20.3587 55.4332 20.5894C58.5247 18.6262 65.8971 16.1313 70.6554 21.8568C75.4137 27.5823 69.1616 32.4815 65.4408 34.2154C68.4152 37.0098 63.7372 44.7636 61.0265 48.2912C67.0219 52.1861 63.8245 59.5287 61.4764 62.7132L55.5242 63.3966C53.9597 63.7773 51.436 67.183 54.0903 69.2904C57.4081 71.9248 59.0043 83.1997 47.5001 85.4254C38.2967 87.2058 35.0456 81.1264 34.5705 77.8641C30.1289 79.0978 24.7475 75.4741 22.6121 73.5081C18.1479 74.0207 8.49943 73.5004 5.61848 67.3181C2.73753 61.1358 11.8626 56.0474 16.7853 54.276L17.1313 49.4117C12.9548 47.1775 12.784 45.6895 12.3297 39.1079C11.9664 33.8426 19.0865 32.3014 22.692 32.1889C20.0844 28.3875 24.968 21.3739 27.7357 18.3423C26.345 14.9841 25.7385 7.77671 34.4384 5.81281Z" fill="#FF1EBC" stroke="#FF1EBC"/>
<path d="M27.2102 37.3992C29.3262 40.071 31.3257 46.455 22.3957 50.6164" stroke="#DEDBF0" stroke-linecap="round"/>
<path d="M18.615 57.0812C21.4563 59.0667 26.3027 64.1589 22.958 68.6438" stroke="#DEDBF0" stroke-linecap="round"/>
<path d="M38.4635 75.0047C39.8766 72.4302 43.7898 67.8197 48.138 69.9739" stroke="#DEDBF0" stroke-linecap="round"/>
<path d="M54.845 49.6041C51.6396 50.5753 46.3727 54.0748 50.9475 60.3038" stroke="#DEDBF0" stroke-linecap="round"/>
<path d="M40.2609 32.8852C42.5951 34.3058 44.7834 30.2552 44.7834 30.2552C43.9053 31.3611 42.7785 33.8023 45.296 34.7193" stroke="#DEDBF0" stroke-linecap="round"/>
<circle cx="54.2827" cy="31.5767" r="1.33969" transform="rotate(20.0145 54.2827 31.5767)" fill="#D9D9D9"/>
<circle cx="37.9184" cy="25.6159" r="1.33969" transform="rotate(20.0145 37.9184 25.6159)" fill="#D9D9D9"/>
<circle cx="44.5542" cy="30.8847" r="1.33969" transform="rotate(20.0145 44.5542 30.8847)" fill="#DEDBF0"/>
</svg>
