<svg width="132" height="120" viewBox="0 0 132 120" fill="none" xmlns="http://www.w3.org/2000/svg">
<rect x="17.1904" y="53.7354" width="52.248" height="83.5969" rx="2" transform="rotate(-50.9268 17.1904 53.7354)" fill="#FFDE32"/>
<path d="M98.5565 86.1464L119.281 85.4878L102.169 106.565L98.5565 86.1464Z" fill="#FFDE32"/>
<path d="M33.6569 33.4541L30.0443 13.0359L12.932 34.1127L33.6569 33.4541Z" fill="#FFDE32"/>
<path d="M38.8494 71.0188C40.5003 68.9854 43.4484 68.3022 45.966 68.1133C49.473 67.8502 53.8855 68.053 57.2417 69.2705C60.4441 70.4323 67.8034 74.1914 65.8346 78.8011C63.9088 83.31 57.1236 77.5119 55.5215 75.4336C51.1005 69.6988 50.3361 61.8386 53.4599 55.3421C54.4239 53.3373 55.8158 51.2187 57.8344 50.1519C58.7677 49.6586 59.8188 49.6365 60.847 49.5331C63.6989 49.2462 66.4512 49.2181 69.3111 49.4438C74.5065 49.8536 79.8473 51.0905 83.2667 55.3891C85.8812 58.6759 86.1105 63.574 85.3023 67.5496C84.5977 71.0157 82.2383 72.4098 78.9053 72.4987C77.2929 72.5417 75.8199 70.8474 74.672 69.8935C73.9458 69.2901 73.6838 68.6298 73.4489 67.733C72.5329 64.2345 72.7462 60.3288 73.0042 56.7766C73.4013 51.3086 75.9516 46.6754 79.3501 42.4895C80.1619 41.4897 80.6511 40.8087 81.9335 40.5299C82.114 40.4907 83.2276 40.0107 82.771 40.2174" stroke="white" stroke-linecap="square"/>
</svg>
