<svg width="44" height="51" viewBox="0 0 44 51" fill="none" xmlns="http://www.w3.org/2000/svg">
<path d="M6.03763 34.593C6.35349 33.6966 6.20837 32.7063 5.65348 31.938C3.20344 28.6002 -3.01983 18.8171 1.7522 11.0914C7.59132 1.63266 20.5928 -2.02959 31.9978 2.84488C43.4029 7.71935 45.3919 22.4452 43.2321 26.9099C41.3114 30.8795 36.5906 35.2161 32.7747 37.3076C31.921 37.7772 31.3234 38.6052 31.2124 39.5784L30.3161 47.509C30.1368 49.0969 28.6941 50.2408 27.1063 50.0444C22.2147 49.4213 12.1585 47.7822 5.2864 44.1626C4.02297 43.4968 3.43393 42.0028 3.91199 40.654L6.05471 34.593H6.03763Z" fill="#EEEAC7"/>
<path d="M17.5878 17.972C16.7768 17.3147 15.6414 17.2122 14.7024 17.6647C11.9023 19.0135 5.77295 22.8038 9.98156 28.7624C14.9158 35.754 22.8293 22.2062 17.5878 17.9634V17.972Z" fill="#373131"/>
<path d="M27.1916 20.2684C28.1648 19.8842 29.2746 20.1318 30.0343 20.8489C32.2966 22.9745 36.9918 28.438 31.1783 32.86C24.366 38.0333 20.9086 22.7355 27.1831 20.2684H27.1916Z" fill="#373131"/>
<path d="M17.7159 30.8369C17.7159 30.8369 19.1415 28.6941 20.4476 28.438C21.7623 28.1819 22.3684 31.9125 22.1208 32.3308C21.8732 32.7491 17.4427 32.604 17.7159 30.8283V30.8369Z" fill="#373131"/>
<path d="M9.52911 40.4833C9.81083 37.2991 10.5962 34.1064 12.1413 31.2893L12.406 31.4259C11.2194 34.3625 10.6474 37.4784 9.8279 40.526L9.53765 40.4833H9.52911Z" fill="#373131"/>
<path d="M14.378 42.0968C14.6597 38.9126 15.4451 35.7199 16.9902 32.9027L17.2549 33.0393C16.0683 35.976 15.4963 39.0919 14.6768 42.1395L14.3865 42.0968H14.378Z" fill="#373131"/>
<path d="M22.505 33.8076C22.2233 36.9918 21.4379 40.1846 19.8927 43.0017L19.6281 42.8651C20.8147 39.9285 21.3867 36.8126 22.2062 33.765L22.4965 33.8076H22.505Z" fill="#373131"/>
<path d="M26.9269 35.7625C26.6452 38.9467 25.8598 42.1395 24.3147 44.9566L24.05 44.82C25.2367 41.8834 25.8086 38.7675 26.6281 35.7198L26.9184 35.7625H26.9269Z" fill="#373131"/>
<path d="M8.53032 33.3296C15.189 35.4723 21.8476 38.1528 28.8989 38.4601L28.916 38.8528C23.5464 39.1175 18.3049 37.4784 13.2938 35.754C11.6291 35.1308 9.98156 34.4735 8.38519 33.6966L8.53885 33.3296H8.53032Z" fill="#373131"/>
</svg>
