<svg width="312" height="337" viewBox="0 0 312 337" fill="none" xmlns="http://www.w3.org/2000/svg">
<path d="M68.988 0H242.488V29C263.321 50.3333 305.888 96.9 309.488 112.5C313.088 128.1 310.988 229.333 309.488 278C309.488 297.5 296.988 336.5 246.988 336.5H127.988L68.988 0Z" fill="white"/>
<path d="M242.488 0H68.988L68.9878 29C48.1545 50.3333 5.58781 96.9 1.98781 112.5C-1.61219 128.1 0.487808 229.333 1.98781 278C1.98781 297.5 14.4878 336.5 64.4878 336.5H183.488L242.488 0Z" fill="white"/>
<path d="M70 13L241 6.5L70 21" stroke="#D9D9D9"/>
<path d="M71.5 21H240" stroke="#D9D9D9"/>
<path d="M68.4444 148H0V238H68.4444C68.4444 225.727 81.4815 222.659 88 222.659V165.386C74.5905 165.386 69.3757 153.795 68.4444 148Z" fill="#D9D9D9"/>
<path d="M0 155H58.9091C61.3636 160.79 69.2182 172.371 81 172.371V214.714C73.6364 217.248 59.4982 224.051 61.8545 231H0" stroke="#0041EB"/>
<circle cx="108.5" cy="223.5" r="11.5" fill="#FCA9BB"/>
<circle cx="275.5" cy="281.5" r="11.5" fill="#FCA9BB"/>
<circle cx="185.5" cy="278.5" r="11.5" fill="#FFD5AE"/>
<circle cx="60.5" cy="110.5" r="11.5" fill="#FFD5AE"/>
<circle cx="211.5" cy="174.5" r="11.5" fill="#0041FF"/>
<circle cx="153.5" cy="99.5" r="11.5" fill="#0041FF"/>
<circle cx="71.5" cy="297.5" r="11.5" fill="#0041FF"/>
</svg>
