<svg width="48" height="48" viewBox="0 0 48 48" fill="none" xmlns="http://www.w3.org/2000/svg">
<circle cx="24" cy="24" r="24" fill="#1E90FF"/>
<path d="M36 22.5C36.8284 22.5 37.5 23.1716 37.5 24C37.5 24.8284 36.8284 25.5 36 25.5V22.5ZM11.9393 25.0607C11.3536 24.4749 11.3536 23.5251 11.9393 22.9393L21.4853 13.3934C22.0711 12.8076 23.0208 12.8076 23.6066 13.3934C24.1924 13.9792 24.1924 14.9289 23.6066 15.5147L15.1213 24L23.6066 32.4853C24.1924 33.0711 24.1924 34.0208 23.6066 34.6066C23.0208 35.1924 22.0711 35.1924 21.4853 34.6066L11.9393 25.0607ZM36 25.5H13V22.5H36V25.5Z" fill="white"/>
</svg>
