<svg width="69" height="82" viewBox="0 0 69 82" fill="none" xmlns="http://www.w3.org/2000/svg">
<path d="M30.3705 1.30083C39.0703 -0.66307 41.4313 7.46852 41.5243 11.7798C41.6143 14.6642 48.1225 15.8467 51.3653 16.0774C54.4568 14.1142 61.8292 11.6193 66.5875 17.3448C71.3458 23.0703 65.0937 27.9695 61.3729 29.7034C64.3473 32.4978 59.6693 40.2516 56.9586 43.7792C62.954 47.6741 59.7566 55.0167 57.4085 58.2012L51.4563 58.8846C49.8918 59.2653 47.3681 62.671 50.0224 64.7784C53.3402 67.4128 54.9364 78.6877 43.4322 80.9134C34.2288 82.6938 30.9777 76.6144 30.5026 73.3521C26.061 74.5858 20.6796 70.9621 18.5442 68.9961C14.08 69.5087 4.43151 68.9884 1.55056 62.8061C-1.33039 56.6238 7.79468 51.5354 12.7174 49.764L13.0634 44.8997C8.88688 42.6655 8.71608 41.1775 8.26178 34.5959C7.89848 29.3306 15.0186 27.7894 18.6241 27.6769C16.0165 23.8755 20.9001 16.8619 23.6678 13.8303C22.2771 10.4721 21.6706 3.26473 30.3705 1.30083Z" fill="white" stroke="white"/>
<path d="M23.1424 32.8872C25.2584 35.559 27.2579 41.943 18.3279 46.1044" stroke="#FF1EBC" stroke-linecap="round"/>
<path d="M14.5471 52.5693C17.3884 54.5548 22.2348 59.647 18.8901 64.1319" stroke="#FF1EBC" stroke-linecap="round"/>
<path d="M34.3956 70.4927C35.8087 67.9182 39.7219 63.3077 44.0701 65.4619" stroke="#FF1EBC" stroke-linecap="round"/>
<path d="M50.7771 45.092C47.5717 46.0632 42.3048 49.5627 46.8796 55.7917" stroke="#FF1EBC" stroke-linecap="round"/>
<path d="M36.193 28.3732C38.5272 29.7938 40.7155 25.7432 40.7155 25.7432C39.8374 26.8491 38.7106 29.2903 41.2281 30.2073" stroke="#FF1EBC" stroke-linecap="round"/>
<path d="M49.7563 28.3235C50.4515 28.5767 51.2204 28.2184 51.4736 27.5232C51.7268 26.828 51.3685 26.0592 50.6733 25.8059C49.9781 25.5527 49.2093 25.911 48.956 26.6062C48.7028 27.3014 49.0611 28.0703 49.7563 28.3235Z" fill="#FF1EBC"/>
<path d="M33.392 22.3628C34.0872 22.616 34.8561 22.2577 35.1093 21.5625C35.3626 20.8673 35.0043 20.0985 34.3091 19.8452C33.6139 19.592 32.845 19.9503 32.5918 20.6455C32.3385 21.3407 32.6968 22.1096 33.392 22.3628Z" fill="#FF1EBC"/>
<path d="M40.0278 27.6316C40.723 27.8848 41.4918 27.5265 41.7451 26.8313C41.9983 26.1361 41.64 25.3673 40.9448 25.114C40.2496 24.8608 39.4807 25.2191 39.2275 25.9143C38.9743 26.6095 39.3326 27.3784 40.0278 27.6316Z" fill="#FF1EBC"/>
</svg>
