<svg width="307" height="90" viewBox="0 0 307 90" fill="none" xmlns="http://www.w3.org/2000/svg">
<rect width="307" height="90" rx="45" fill="white"/>
<rect x="49.932" y="89.9243" width="89.9243" height="199.727" rx="2" transform="rotate(-90 49.932 89.9243)" fill="#FFDE32"/>
<path d="M249.659 44.9621L287.108 21.599V68.3251L249.659 44.9621Z" fill="#FFDE32"/>
<path d="M49.9318 44.9621L12.483 21.599V68.3251L49.9318 44.9621Z" fill="#FFDE32"/>
<path d="M116 88C116 83.6435 120.446 79.6706 124.838 76.7873C130.955 72.7709 139.458 68.4068 147.528 66.4604C155.229 64.6032 174.569 61.7418 177.864 69.7582C181.087 77.5995 159.738 77.2259 153.628 76.222C136.767 73.4516 123.492 64.1034 119.497 52.4398C118.264 48.8405 117.655 44.6456 119.795 41.1518C120.785 39.5364 122.704 38.4059 124.458 37.1944C129.323 33.834 134.393 30.9124 140.046 28.2054C150.315 23.2879 162.102 19.2859 174.936 21.2517C184.75 22.7548 192.563 28.8391 197.058 34.8199C200.976 40.0343 198.696 44.308 192.639 47.9171C189.708 49.6631 184.417 49.0195 180.846 48.9912C178.587 48.9734 177.104 48.3955 175.316 47.4837C168.338 43.9266 162.844 38.6596 157.966 33.8023C150.457 26.3253 148.206 17.6689 148.206 8.70104C148.206 6.55884 148.088 5.16665 150.05 3.46218C150.326 3.22234 151.67 1.43505 151.134 2.18074" stroke="white" stroke-width="3" stroke-linecap="square"/>
</svg>
