<svg width="174" height="97" viewBox="0 0 174 97" fill="none" xmlns="http://www.w3.org/2000/svg">
<path d="M37.2407 22.2408C26.6806 15.1608 12.7906 7.46082 8.56065 12.5408C-0.39935 23.3308 23.4207 31.8108 23.4207 31.8108C23.4207 31.8108 2.36065 27.4408 0.130651 37.3008C-1.84935 46.1008 19.2607 45.1708 23.8307 44.8708C24.3807 44.8208 24.7107 44.8108 24.7107 44.8108C24.7107 44.8108 24.3807 44.8408 23.8307 44.8708C19.5107 45.2308 0.560651 47.4308 2.00065 57.8708C3.07065 65.6408 22.5306 63.5708 35.6606 61.2608C42.4406 60.0708 47.5307 58.8108 47.5307 58.8108L50.0707 31.5908C50.0707 31.5908 44.4206 27.0608 37.2206 22.2408H37.2407Z" fill="#C5CC23"/>
<path d="M172.841 38.1108C170.501 31.9208 154.861 34.6808 142.571 37.9208C134.201 40.1308 127.381 42.5708 127.381 42.5708L120.911 69.1408C120.911 69.1408 125.321 71.9908 131.341 75.3308C143.001 81.7908 160.721 90.0908 164.271 83.1008C169.031 73.7008 151.831 65.4408 147.871 63.6908C147.361 63.4808 147.061 63.3408 147.061 63.3408C147.061 63.3408 147.361 63.4608 147.871 63.6908C152.101 65.4708 171.751 73.2408 172.741 64.2708C173.851 54.2208 152.521 51.4808 152.521 51.4808C152.521 51.4808 177.811 51.2308 172.861 38.1108H172.841Z" fill="#C5CC23"/>
<path d="M148.181 46.5208C145.991 42.5108 134.111 46.2408 130.421 47.2008C128.401 47.8008 126.391 48.4408 124.421 49.1508L124.651 48.9008L121.321 63.0008L121.121 62.5008C124.791 64.5808 140.451 74.5708 143.451 70.0708C145.421 65.3908 138.001 61.7908 134.561 60.1808L134.871 59.4608C137.561 60.5408 146.131 64.1908 147.851 60.8608C149.041 56.0608 141.021 54.4408 137.581 53.8308L137.611 53.2608C141.481 53.0708 150.141 52.2908 148.171 46.5408L148.181 46.5208ZM148.611 46.3608C150.761 52.5508 141.871 53.6308 137.621 53.8208L137.651 53.2508C141.201 53.8808 145.141 54.6308 147.721 57.3908C148.561 58.3708 148.951 59.8108 148.481 61.1008C146.561 65.1708 137.651 61.3808 134.571 60.1908L134.881 59.4708C136.461 60.1408 138.001 60.9308 139.461 61.8608C142.251 63.6008 146.011 66.8008 144.251 70.4808C140.841 76.2008 124.761 65.6808 120.611 63.2908L120.331 63.1208L120.411 62.7908L123.941 48.7408L123.991 48.5508L124.171 48.4908C128.701 47.1008 146.071 41.1108 148.601 46.3808L148.611 46.3608Z" fill="#373131"/>
<path d="M22.3206 53.2507C24.6206 58.1507 41.7806 53.3107 46.2006 52.1507L45.9506 52.3907L50.1805 38.5307L50.3506 39.0407C47.5306 37.1607 44.7905 35.1607 41.8405 33.4907C38.8605 31.8807 27.8606 25.1107 28.1006 32.2407C29.0706 36.2907 33.3906 38.5707 36.7806 40.5007L36.4305 41.2007C33.8105 39.9507 25.5006 35.7607 23.5706 38.9807C23.1406 39.9507 23.3306 41.1707 24.0106 42.0607C26.2506 44.8007 30.0406 45.8207 33.3706 46.6507L33.3006 47.2207C29.4306 47.1607 20.7306 47.3907 22.3306 53.2507H22.3206ZM21.8806 53.3907C20.1306 47.0807 29.0806 46.5707 33.3206 46.6507L33.2505 47.2207C30.8605 46.7107 28.5306 45.9807 26.3506 44.8107C25.2806 44.2107 24.2306 43.4907 23.4606 42.4507C22.2306 40.9707 22.3206 38.0107 24.4506 37.3607C26.2906 36.7807 28.2305 37.2907 30.0005 37.7607C32.3405 38.4507 34.6006 39.4107 36.7606 40.4907L36.4105 41.1907C34.8805 40.4207 33.3906 39.5307 31.9906 38.5207C29.9506 36.9807 27.6706 35.0607 27.2206 32.3507C26.8806 30.4407 28.2006 28.1807 30.2306 28.1607C32.9206 27.9907 35.4206 29.1607 37.7906 30.2107C42.4706 32.3907 46.6706 35.3707 50.8906 38.2907L51.1605 38.4707L51.0606 38.8007L46.6406 52.6007L46.5806 52.7907L46.4006 52.8407C41.7906 53.9307 24.0706 58.8107 21.8806 53.3807V53.3907Z" fill="#373131"/>
<path d="M130.752 52.1151C132.986 27.801 115.087 6.27944 90.7727 4.04529C66.4586 1.81114 44.937 19.7105 42.7029 44.0245C40.4687 68.3386 58.3681 89.8602 82.6821 92.0944C106.996 94.3285 128.518 76.4292 130.752 52.1151Z" fill="#C5CC23"/>
<path d="M68.1906 60.7408C68.5606 59.6908 68.3906 58.5308 67.7406 57.6308C64.8706 53.7208 57.5806 42.2608 63.1706 33.2108C70.0106 22.1308 85.2406 17.8408 98.6006 23.5508C111.961 29.2608 114.291 46.5108 111.761 51.7408C109.511 56.3908 103.981 61.4708 99.5106 63.9208C98.5106 64.4708 97.8106 65.4408 97.6806 66.5808L96.6306 75.8708C96.4206 77.7308 94.7306 79.0708 92.8706 78.8408C87.1406 78.1108 75.3606 76.1908 67.3106 71.9508C65.8306 71.1708 65.1406 69.4208 65.7006 67.8408L68.2106 60.7408H68.1906Z" fill="#EEEAC7"/>
<path d="M81.7206 41.2708C80.7706 40.5008 79.4406 40.3808 78.3406 40.9108C75.0606 42.4908 67.8806 46.9308 72.8106 53.9108C78.5906 62.1008 87.8606 46.2308 81.7206 41.2608V41.2708Z" fill="#373131"/>
<path d="M92.9706 43.9609C94.1106 43.5109 95.4106 43.8009 96.3006 44.6409C98.9506 47.1309 104.451 53.5309 97.6406 58.7109C89.6606 64.7709 85.6106 46.8509 92.9606 43.9609H92.9706Z" fill="#373131"/>
<path d="M81.8706 56.3409C81.8706 56.3409 83.5406 53.8309 85.0706 53.5309C86.6106 53.2309 87.3206 57.6009 87.0306 58.0909C86.7406 58.5809 81.5506 58.4109 81.8706 56.3309V56.3409Z" fill="#373131"/>
<path d="M72.2806 67.6409C72.6106 63.9109 73.5306 60.1708 75.3406 56.8708L75.6506 57.0309C74.2606 60.4709 73.5906 64.1208 72.6306 67.6908L72.2906 67.6409H72.2806Z" fill="#373131"/>
<path d="M77.9606 69.5309C78.2906 65.8009 79.2106 62.0609 81.0206 58.7609L81.3306 58.9209C79.9406 62.3609 79.2706 66.0109 78.3106 69.5809L77.9706 69.5309H77.9606Z" fill="#373131"/>
<path d="M87.4805 59.8209C87.1505 63.5509 86.2305 67.2909 84.4205 70.5909L84.1105 70.4309C85.5005 66.9909 86.1705 63.3409 87.1305 59.7709L87.4705 59.8209H87.4805Z" fill="#373131"/>
<path d="M92.6605 62.1109C92.3305 65.8409 91.4105 69.5809 89.6005 72.8809L89.2905 72.7209C90.6805 69.2809 91.3505 65.6309 92.3105 62.0609L92.6505 62.1109H92.6605Z" fill="#373131"/>
<path d="M71.1106 59.2609C78.9106 61.7709 86.7106 64.9109 94.9706 65.2709L94.9906 65.7309C88.7006 66.0409 82.5606 64.1209 76.6906 62.1009C74.7406 61.3709 72.8106 60.6009 70.9406 59.6909L71.1206 59.2609H71.1106Z" fill="#373131"/>
<path d="M130.752 52.1151C132.986 27.801 115.087 6.27944 90.7727 4.04529C66.4586 1.81114 44.937 19.7105 42.7029 44.0245C40.4687 68.3386 58.3681 89.8602 82.6821 92.0944C106.996 94.3285 128.518 76.4292 130.752 52.1151Z" stroke="#373131" stroke-miterlimit="10"/>
</svg>
