<svg width="200" height="200" viewBox="0 0 200 200" fill="none" xmlns="http://www.w3.org/2000/svg">
<path d="M108.97 115.02C105.5 115.02 101.99 114.67 98.4599 113.94C70.3999 108.15 52.2799 80.62 58.0599 52.56C63.8499 24.5 91.3699 6.37998 119.44 12.16C147.5 17.95 165.62 45.48 159.84 73.54C154.78 98.08 133.09 115.01 108.97 115.01V115.02ZM108.85 15.08C99.5799 15.08 90.4999 17.78 82.5799 22.99C71.8799 30.03 64.5599 40.82 61.9799 53.37C59.3899 65.92 61.8499 78.72 68.8899 89.42C75.9299 100.12 86.7199 107.44 99.2699 110.02C125.17 115.36 150.59 98.63 155.92 72.73C161.26 46.83 144.53 21.42 118.63 16.08C115.37 15.41 112.1 15.08 108.85 15.08Z" fill="#958AAA"/>
<path d="M133.85 89.19C87.2 89.19 55.73 68.65 55.36 68.42C54.85 68.08 54.52 67.52 54.47 66.91C52.98 48.06 59.49 42.88 60.23 42.35C60.85 41.91 61.66 41.86 62.32 42.22C118.37 72.04 159.19 59.54 159.6 59.41C160.2 59.22 160.86 59.32 161.37 59.69C161.88 60.06 162.2 60.64 162.21 61.27C162.58 77.74 157.96 86.24 157.76 86.59C157.46 87.14 156.91 87.51 156.29 87.6C148.49 88.71 140.98 89.19 133.83 89.19H133.85ZM58.4 65.59C64.37 69.23 102.54 90.84 154.69 83.78C155.68 81.52 158.13 74.82 158.25 63.92C148.31 66.3 111.32 72.34 61.81 46.46C60.42 48.33 57.63 53.64 58.4 65.6V65.59Z" fill="#958AAA"/>
<path d="M98.61 111.51L81.23 185.36C81.23 185.36 86.41 188.84 90.03 185.54L107.49 111.49L98.62 111.51H98.61Z" fill="#EEEAC7"/>
<path d="M94.1299 108.24C94.1299 108.24 81.8499 116.08 85.3299 120.58C88.7999 125.08 96.7199 113.23 96.7199 113.23C96.7199 113.23 90.7899 124 95.3399 125.86C99.8899 127.72 102.92 115.25 102.92 115.25C102.92 115.25 101 125.43 106.44 126.79C111.88 128.15 108.96 116 108.96 116C108.96 116 111.72 126.03 115.18 124.7C118.64 123.37 114.08 108.49 114.08 108.49L94.1399 108.24H94.1299Z" fill="#958AAA"/>
<path d="M113.06 112.852C140.559 110.581 161.01 86.4486 158.74 58.95C156.47 31.4514 132.337 11 104.838 13.2704C77.3398 15.5409 56.8884 39.6735 59.1589 67.172C61.4293 94.6706 85.5619 115.122 113.06 112.852Z" fill="#FF6521"/>
<path d="M137.91 28.52C137.54 29.08 137.44 29.77 137.56 30.43C137.86 32.08 140.28 31.96 140.43 30.29C140.45 30.1 140.45 29.9 140.43 29.7C140.31 28.64 139.23 27.65 138.23 28.02" fill="#EEEAC7"/>
<path d="M133.82 36.06C133.39 36.72 133.27 37.52 133.41 38.28C133.76 40.2 136.57 40.06 136.75 38.12C136.77 37.89 136.77 37.67 136.75 37.44C136.61 36.21 135.35 35.05 134.19 35.49" fill="#EEEAC7"/>
<path d="M141.82 42.99C142.69 42.78 143.41 42.21 143.9 41.46C145.11 39.6 142.67 37.51 141 38.98C140.81 39.15 140.63 39.34 140.47 39.55C139.63 40.68 140.28 42.38 141.58 42.92" fill="#EEEAC7"/>
<path d="M113.2 113.08C111.48 113.35 109.73 113.47 107.99 113.48C106.25 113.46 104.5 113.37 102.77 113.13C99.31 112.68 95.89 111.84 92.66 110.55C92.54 110.5 92.48 110.37 92.53 110.25C92.57 110.14 92.7 110.08 92.81 110.11C96.12 111.05 99.49 111.76 102.89 112.17C106.29 112.57 109.72 112.67 113.16 112.63C113.29 112.63 113.39 112.73 113.39 112.86C113.39 112.98 113.31 113.07 113.19 113.09L113.2 113.08Z" fill="#023067"/>
<path d="M56.48 66.75C56.48 66.75 97.39 93.97 156.04 85.62C156.04 85.62 160.6 77.43 160.24 61.32C160.24 61.32 118.98 74.62 61.41 43.99C61.41 43.99 55.04 48.5 56.48 66.76V66.75Z" fill="#FF6521"/>
<path d="M156.68 62.44C148.85 64.18 140.79 64.73 132.78 64.54C124.77 64.36 116.77 63.46 108.92 61.84C101.05 60.29 93.36 57.98 85.83 55.26C78.26 52.64 71.0399 49.13 63.8899 45.55C63.7799 45.49 63.73 45.35 63.79 45.24C63.85 45.13 63.9799 45.08 64.0999 45.13L69.51 47.69L72.2099 48.97C73.1099 49.4 74.0499 49.75 74.9599 50.14L80.48 52.45C82.33 53.18 84.2199 53.83 86.0899 54.52C93.5999 57.19 101.27 59.43 109.09 60.92C116.91 62.42 124.82 63.45 132.79 63.69C136.77 63.84 140.75 63.74 144.73 63.48C148.7 63.22 152.66 62.75 156.57 61.99C156.7 61.96 156.82 62.05 156.84 62.17C156.87 62.29 156.78 62.41 156.66 62.44H156.68Z" fill="#023067"/>
<path d="M59.9701 68.56C63.4301 70.44 66.9901 72.12 70.6101 73.66C72.4001 74.47 74.25 75.16 76.07 75.9C77.91 76.6 79.7701 77.25 81.6101 77.92C89.0501 80.48 96.67 82.5 104.39 83.98C112.12 85.44 119.96 86.31 127.82 86.67L133.72 86.8C135.69 86.83 137.65 86.71 139.62 86.69L142.57 86.62C143.55 86.57 144.53 86.48 145.51 86.41L151.4 85.96C151.53 85.95 151.64 86.04 151.65 86.17C151.65 86.3 151.57 86.4 151.44 86.42C143.59 87.26 135.68 87.79 127.77 87.46C119.87 87.15 111.98 86.33 104.2 84.91C96.41 83.5 88.7601 81.39 81.2901 78.79C73.8401 76.12 66.5701 72.92 59.7201 68.96C59.6101 68.9 59.57 68.75 59.64 68.64C59.7 68.53 59.84 68.49 59.95 68.55L59.9701 68.56Z" fill="#023067"/>
</svg>
