<svg width="438" height="148" viewBox="0 0 438 148" fill="none" xmlns="http://www.w3.org/2000/svg">
<path d="M74.0413 80.5089C74.0413 80.5089 9.69016 62.4906 4.52572 77.8763C-2.00001 97.2918 36.4976 95.5185 36.4976 95.5185C36.4976 95.5185 4.2461 101.285 6.71362 115.745C9.18114 130.206 45.7216 112.232 45.7216 112.232C45.7216 112.232 12.0712 127.398 21.0664 142.296C30.0617 157.194 85.951 118.415 85.951 118.415L74.0543 80.4788L74.0413 80.5089Z" fill="#F9EB32"/>
<path d="M75.8327 92.6931C75.8327 92.6931 54.7409 86.7811 53.0436 91.8254C50.9106 98.1826 63.5203 97.6083 63.5203 97.6083C63.5203 97.6083 52.9507 99.4975 53.767 104.236C54.5833 108.974 66.5468 103.081 66.5468 103.081C66.5468 103.081 55.5217 108.045 58.473 112.927C61.4244 117.809 79.7341 105.096 79.7341 105.096L75.8305 92.6642L75.8327 92.6931Z" fill="#FF6521"/>
<path d="M354.6 37.2974C354.6 37.2974 402.499 -7.93281 414.592 3.26952C429.841 17.4043 395.047 33.4134 395.047 33.4134C395.047 33.4134 426.289 23.7814 431.188 37.6651C436.088 51.5489 395.103 52.361 395.103 52.361C395.103 52.361 432.179 50.3751 431.54 67.6152C430.902 84.8553 362.67 76.1622 362.67 76.1622L354.6 37.2974Z" fill="#F9EB32"/>
<path d="M358.987 48.8491C358.987 48.8491 374.692 34.02 378.652 37.6916C383.648 42.3321 372.247 47.5713 372.247 47.5713C372.247 47.5713 382.491 44.4122 384.088 48.9604C385.685 53.5087 372.258 53.7811 372.258 53.7811C372.258 53.7811 384.403 53.1255 384.203 58.7839C383.988 64.429 361.63 61.5798 361.63 61.5798L358.987 48.8491Z" fill="#FF6521"/>
<path d="M73.0489 57.2542C73.0489 57.2542 67.8852 103.402 90.6337 135.093C90.6337 135.093 320.17 105.669 365.03 92.2304C365.03 92.2304 371.949 60.0149 350.065 14.6883C350.065 14.6883 149.168 30.1678 73.0489 57.2542Z" fill="#958AAA"/>
<mask id="mask0_95_43" style="mask-type:luminance" maskUnits="userSpaceOnUse" x="72" y="14" width="295" height="122">
<path d="M73.0489 57.2542C73.0489 57.2542 67.8852 103.402 90.6337 135.093C90.6337 135.093 320.17 105.669 365.03 92.2304C365.03 92.2304 371.949 60.0149 350.065 14.6883C350.065 14.6883 149.168 30.1678 73.0489 57.2542Z" fill="white"/>
</mask>
<g mask="url(#mask0_95_43)">
<path d="M370.152 113.108L331.789 115.046L325.79 2.23912C325.79 2.23912 361.934 -9.05764 364.153 0.301485C384.6 86.0836 370.152 113.108 370.152 113.108Z" fill="#958AAA"/>
<path d="M338.801 114.4L300.669 118.996L286.866 6.86615C286.866 6.86615 322.135 -6.90984 324.998 2.26977C351.329 86.4439 338.801 114.4 338.801 114.4Z" fill="#FF6521"/>
<path d="M299.644 124.848L261.281 126.785L255.282 13.9789C255.282 13.9789 291.425 2.68211 293.645 12.0412C314.091 97.8233 299.644 124.848 299.644 124.848Z" fill="#F9EB32"/>
<path d="M268.292 126.139L230.161 130.736L216.358 18.606C216.358 18.606 251.626 4.82997 254.49 14.0096C280.82 98.1837 268.292 126.139 268.292 126.139Z" fill="#C5CC23"/>
<path d="M228.282 140.055L189.919 141.993L183.92 29.1866C183.92 29.1866 220.063 17.8898 222.283 27.2489C242.73 113.031 228.282 140.055 228.282 140.055Z" fill="#023067"/>
<path d="M196.914 141.334L158.782 145.93L144.98 33.8004C144.98 33.8004 180.248 20.0244 183.112 29.204C209.442 113.378 196.914 141.334 196.914 141.334Z" fill="#958AAA"/>
<path d="M158.804 143.18L120.69 148.007L106.191 35.9592C106.191 35.9592 141.365 21.9576 144.289 31.1326C171.143 115.151 158.789 143.181 158.789 143.181L158.804 143.18Z" fill="#FF6521"/>
<path d="M132.635 145.112L94.9652 152.583L72.7212 41.7888C72.7212 41.7888 106.828 25.3807 110.391 34.3183C143.003 116.273 132.635 145.112 132.635 145.112Z" fill="#F9EB32"/>
<path d="M101.41 149.493L63.7398 156.963L41.4959 46.1689C41.4959 46.1689 75.6026 29.7608 79.1659 38.6985C111.778 120.653 101.41 149.493 101.41 149.493Z" fill="#C5CC23"/>
</g>
<path d="M115.444 94.5445C116.919 102.331 123.613 107.6 130.652 106.515L318.869 77.7252C325.909 76.6408 330.815 69.5796 330.006 61.6993L329.607 57.8315C328.719 49.3027 321.55 43.2118 313.963 44.5266L126.145 77.1845C118.738 78.4711 113.892 86.3277 115.46 94.5434L115.444 94.5445Z" fill="#EEEAC7"/>
<path d="M133.82 97.4762C139.078 96.0755 142.902 90.6524 141.837 85.4531C141.43 85.3239 141.288 85.2764 140.88 85.1327C137.439 87.5161 138.986 91.8208 141.917 93.5921C144.254 95.001 147.171 95.1734 149.944 95.0657C154.072 94.8993 158.371 94.1529 161.692 91.793C165.622 88.9945 167.755 83.4374 164.445 79.4839C163.807 78.7176 162.495 78.9476 162.167 79.8741C160.267 85.2683 166.454 88.2771 171.517 89.1456C175.279 89.7923 179.245 90.1036 182.85 88.8714C186.457 87.6536 189.599 84.5509 189.738 80.9188C189.785 79.7226 189.36 78.3439 188.053 78.0353C186.279 77.6166 185.141 78.9388 185.378 80.6518C185.68 82.8397 187.914 83.8783 189.973 84.4354C194.748 85.7474 199.927 85.7344 204.717 84.3981C207.8 83.5398 210.989 81.859 212.008 78.9604C212.65 77.1519 211.83 74.9886 210.397 73.8169C209.03 72.7129 206.938 73.9473 207.278 75.6233C207.687 77.5995 208.943 79.4537 210.627 80.7082C213.023 82.4908 216.12 83.2314 219.169 83.3356C227.841 83.6405 236.508 78.8116 240.538 71.4676C241.235 70.1786 241.82 68.6218 240.809 67.3746C239.983 66.3461 238.378 66.1473 237.189 66.7898C234.986 67.9744 234.938 70.7706 236.191 72.5958C237.239 74.1311 239.009 75.1029 240.817 75.7663C249.228 78.8836 259.647 76.2203 265.359 69.5055C266.581 68.0751 267.637 66.2791 267.212 64.4931C266.787 62.7072 264.445 60.2369 262.856 62.8586C262.301 65.8385 264.329 68.8125 267.044 70.3673C269.759 71.9077 273.027 72.2862 276.188 72.4548C285.67 72.9603 296.39 71.2488 302.09 63.9677C303.484 62.1898 304.556 59.9853 303.853 57.7694C303.51 56.6609 302.642 55.6937 301.498 55.3147C298.677 54.3788 296.509 57.2478 296.743 59.7319C296.95 61.8688 298.402 63.6936 299.883 65.298C301.978 67.5396 304.403 69.6982 307.43 70.5313C310.458 71.3644 314.228 70.4978 315.785 67.8494" stroke="#373131" stroke-width="0.86" stroke-miterlimit="10"/>
</svg>
