<svg width="67" height="79" viewBox="0 0 67 79" fill="none" xmlns="http://www.w3.org/2000/svg">
<mask id="mask0_109_13" style="mask-type:luminance" maskUnits="userSpaceOnUse" x="0" y="0" width="67" height="79">
<path d="M52.15 1.29001C52.15 1.29001 35.61 -5.27999 15.06 23.03C-5.49002 51.35 -3.38002 58.34 16.71 70.98C36.8 83.62 55.45 79.01 59.76 65.58C64.07 52.15 75.72 7.98001 52.15 1.29001Z" fill="white"/>
</mask>
<g mask="url(#mask0_109_13)">
<path d="M52.15 1.29001C52.15 1.29001 35.61 -5.27999 15.06 23.03C-5.49002 51.35 -3.38002 58.34 16.71 70.98C36.8 83.62 55.45 79.01 59.76 65.58C64.07 52.15 75.72 7.98001 52.15 1.29001Z" fill="#EEEAC7"/>
<path d="M5.44993 37.62C-3.92007 54.35 0.619936 60.86 16.7099 70.98C36.7999 83.62 55.4499 79.01 59.7599 65.58C60.3199 63.83 61.0099 61.54 61.7299 58.89C41.8199 55.89 22.3099 48.25 5.44993 37.63V37.62Z" fill="#958AAA"/>
<path d="M18.0199 19.16C17.0399 20.38 16.0499 21.65 15.0499 23.03C10.9499 28.67 7.76994 33.46 5.43994 37.62C22.2999 48.25 41.8099 55.88 61.7199 58.88C63.3799 52.74 65.2099 44.61 66.0199 36.37C48.9199 34.1 32.4199 28.52 18.0099 19.16H18.0199Z" fill="#FF6521"/>
<path d="M56.08 13.78C55.71 14.34 55.61 15.03 55.73 15.69C56.03 17.34 58.45 17.22 58.6 15.55C58.62 15.36 58.62 15.16 58.6 14.96C58.48 13.91 57.4 12.91 56.4 13.28" fill="#958AAA"/>
<path d="M53.57 18.7901C53.14 19.4501 53.02 20.2501 53.16 21.0101C53.51 22.9301 56.32 22.7901 56.5 20.8501C56.52 20.6201 56.52 20.4001 56.5 20.1701C56.36 18.9401 55.1 17.7801 53.94 18.2201" fill="#958AAA"/>
<path d="M60 23.2C60.87 22.99 61.59 22.42 62.08 21.67C63.29 19.81 60.85 17.72 59.18 19.19C58.99 19.36 58.81 19.55 58.65 19.76C57.81 20.89 58.46 22.59 59.76 23.13" fill="#958AAA"/>
</g>
</svg>
