<svg width="76" height="74" viewBox="0 0 76 74" fill="none" xmlns="http://www.w3.org/2000/svg">
<mask id="mask0_95_71" style="mask-type:luminance" maskUnits="userSpaceOnUse" x="0" y="0" width="76" height="74">
<path d="M55.31 0C55.31 0 20.84 3.92 3.45 18.78C3.45 18.78 0.09 25.68 0 32.35C0 32.35 3.22 53.95 21.64 73.28C21.64 73.28 48.95 69.06 71.5 59.06C71.5 59.06 75.81 50.58 75.68 44.77C75.68 44.77 64.47 11.89 55.31 0.0100021V0Z" fill="white"/>
</mask>
<g mask="url(#mask0_95_71)">
<path d="M3.45 18.78C3.45 18.78 0.09 25.68 0 32.35C0 32.35 3.22 53.95 21.64 73.28C21.64 73.28 48.95 69.06 71.5 59.06C71.5 59.06 75.81 50.58 75.68 44.77L3.45 18.78Z" fill="#958AAA"/>
<path d="M3.44995 18.78C3.44995 18.78 10.92 40.75 24.23 62.49C24.23 62.49 62.06 56.99 75.68 44.77C75.68 44.77 64.47 11.89 55.31 0.0100098C55.31 0.0100098 20.84 3.93001 3.44995 18.79V18.78Z" fill="#958AAA"/>
<path d="M6.83008 30.03C16.4951 30.03 24.3301 22.195 24.3301 12.53C24.3301 2.86505 16.4951 -4.96997 6.83008 -4.96997C-2.8349 -4.96997 -10.6699 2.86505 -10.6699 12.53C-10.6699 22.195 -2.8349 30.03 6.83008 30.03Z" fill="#EEEAC7"/>
<path d="M73.2301 12.9322C75.1287 4.09854 69.5067 -4.60168 60.6731 -6.50028C51.8394 -8.39889 43.1392 -2.77693 41.2406 6.05672C39.342 14.8904 44.9639 23.5906 53.7976 25.4892C62.6312 27.3878 71.3315 21.7658 73.2301 12.9322Z" fill="#EEEAC7"/>
<path d="M35.44 54.42C43.299 54.42 49.67 48.049 49.67 40.19C49.67 32.331 43.299 25.96 35.44 25.96C27.581 25.96 21.21 32.331 21.21 40.19C21.21 48.049 27.581 54.42 35.44 54.42Z" fill="#EEEAC7"/>
<path d="M70.49 70.84C78.349 70.84 84.72 64.469 84.72 56.61C84.72 48.751 78.349 42.38 70.49 42.38C62.631 42.38 56.26 48.751 56.26 56.61C56.26 64.469 62.631 70.84 70.49 70.84Z" fill="#EEEAC7"/>
<path d="M43.881 89.052C49.9356 84.0414 50.782 75.0713 45.7714 69.0167C40.7608 62.9621 31.7907 62.1158 25.7361 67.1263C19.6815 72.1369 18.8352 81.107 23.8458 87.1616C28.8563 93.2162 37.8264 94.0626 43.881 89.052Z" fill="#EEEAC7"/>
<path d="M10.0283 69.1983C16.1125 64.2237 17.012 55.2588 12.0375 49.1746C7.06292 43.0904 -1.902 42.1908 -7.98622 47.1654C-14.0704 52.1399 -14.97 61.1048 -9.99545 67.1891C-5.02088 73.2733 3.94403 74.1728 10.0283 69.1983Z" fill="#EEEAC7"/>
<path d="M4.34 20.72C9.88 35.12 16.56 49.1 24.56 62.29L24.17 62.11C32.8 60.76 41.39 58.94 49.78 56.51C58.11 54.02 66.54 51.17 73.71 46.14L73.94 46.44C70.4 49.08 66.43 51.04 62.4 52.78C50.13 57.83 37.1 60.76 24.04 62.93C19.92 56.27 16.28 49.33 12.92 42.26C9.59999 35.27 6.58999 28.14 3.98999 20.85L4.34 20.72Z" fill="#023067"/>
<path d="M24.41 62.55C23.78 66.19 22.86 69.77 21.83 73.32L21.46 73.24C21.72 71.4 22.08 69.59 22.49 67.78C22.9 65.97 23.36 64.18 24.05 62.44L24.41 62.55Z" fill="#023067"/>
<path d="M19.6 24.35C19.6 24.35 23.73 36.51 31.1 48.53C31.1 48.53 52.03 45.49 59.57 38.72C59.57 38.72 53.37 20.53 48.3 13.95C48.3 13.95 29.23 16.12 19.6 24.34V24.35Z" fill="#C5CC23"/>
<path d="M35.05 38.82C34.93 38.35 34.6 37.9601 34.14 37.7901C32.16 37.0501 26.75 34.59 26.63 29.95C26.49 24.26 31.03 19.05 37.28 17.94C43.53 16.84 48.51 22.59 48.84 25.11C49.13 27.35 48.32 30.53 47.27 32.5C47.03 32.94 47.01 33.47 47.24 33.91L49.08 37.56C49.45 38.29 49.15 39.19 48.41 39.55C46.14 40.66 41.37 42.77 37.41 43.14C36.68 43.21 36.01 42.73 35.84 42.02L35.06 38.82H35.05Z" fill="#EEEAC7"/>
<path d="M35.3499 28.46C34.8199 28.41 34.2999 28.68 34.0299 29.14C33.2099 30.5 31.6399 33.84 35.1199 35.22C39.1899 36.83 38.7899 28.81 35.3599 28.46H35.3499Z" fill="#023067"/>
<path d="M40.1099 26.75C40.4199 26.31 40.9699 26.11 41.4899 26.2C43.0599 26.48 46.5999 27.5 45.3499 31.03C43.8799 35.16 38.1099 29.57 40.1099 26.75Z" fill="#023067"/>
<path d="M39.0099 33.94C39.0099 33.94 39.0099 32.62 39.5099 32.15C40.0099 31.68 41.3099 33.1 41.3199 33.35C41.3299 33.6 39.3899 34.78 39.0099 33.94Z" fill="#023067"/>
<path d="M38.2 40.36C37.43 38.92 36.88 37.33 36.74 35.69L36.89 35.67C37.19 37.26 37.83 38.76 38.33 40.29L38.19 40.35L38.2 40.36Z" fill="#023067"/>
<path d="M40.73 39.7C39.96 38.26 39.41 36.67 39.27 35.03L39.42 35.01C39.72 36.6 40.36 38.1 40.86 39.63L40.72 39.69L40.73 39.7Z" fill="#023067"/>
<path d="M41.89 33.8701C42.66 35.3101 43.21 36.9001 43.35 38.5401L43.2 38.5601C42.9 36.9701 42.26 35.4701 41.76 33.9401L41.9 33.8801L41.89 33.8701Z" fill="#023067"/>
<path d="M44.34 33.47C45.11 34.91 45.66 36.5 45.8 38.14L45.65 38.16C45.35 36.57 44.71 35.07 44.21 33.54L44.35 33.48L44.34 33.47Z" fill="#023067"/>
<path d="M35.77 37.5801C39.22 36.6301 42.83 35.9201 45.94 34.0701L46.06 34.2301C43.05 36.3201 39.38 37.2001 35.81 37.7701L35.77 37.5701V37.5801Z" fill="#023067"/>
</g>
</svg>
