<svg width="200" height="200" viewBox="0 0 200 200" fill="none" xmlns="http://www.w3.org/2000/svg">
<path d="M37.56 96.34C25.3 92.95 9.68999 90.02 7.28999 96.18C2.18999 109.24 27.47 109.78 27.47 109.78C27.47 109.78 6.09999 112.27 7.09999 122.33C7.98999 131.31 27.73 123.77 31.98 122.04C32.49 121.82 32.79 121.7 32.79 121.7C32.79 121.7 32.49 121.83 31.98 122.04C28 123.75 10.7 131.8 15.36 141.26C18.82 148.29 36.64 140.2 48.37 133.87C54.43 130.6 58.87 127.8 58.87 127.8L52.7 101.16C52.7 101.16 45.91 98.64 37.56 96.33V96.34Z" fill="#FF6521"/>
<path d="M171.25 68.66C167.08 63.53 153.11 71.07 142.46 78.03C135.21 82.77 129.51 87.23 129.51 87.23L131.74 114.48C131.74 114.48 136.82 115.79 143.59 117.06C156.69 119.52 176.13 121.81 177.29 114.06C178.85 103.64 159.92 101.22 155.61 100.81C155.06 100.77 154.73 100.74 154.73 100.74C154.73 100.74 155.06 100.76 155.61 100.81C160.18 101.17 181.28 102.34 179.4 93.52C177.29 83.63 156.18 87.76 156.18 87.76C156.18 87.76 180.1 79.55 171.26 68.66H171.25Z" fill="#FF6521"/>
<path d="M150.5 84.42C147.2 81.3 137.02 88.6 133.86 90.66C132.13 91.86 130.43 93.11 128.78 94.4L128.92 94.09L130.2 108.52L129.85 108.11C133.98 108.93 151.99 113.47 153.43 108.25C153.82 103.19 145.65 102.11 141.88 101.67L141.94 100.89C144.84 101.07 154.11 101.83 154.7 98.12C154.32 93.19 146.2 94.18 142.74 94.68L142.59 94.13C146.2 92.73 154.18 89.25 150.5 84.43V84.42ZM150.86 84.13C154.86 89.32 146.75 93.15 142.78 94.67L142.63 94.12C146.53 93.51 155 92.52 155.38 98.16C154.84 102.63 145.19 101.84 141.89 101.68L141.95 100.9C143.66 101.03 145.37 101.31 147.05 101.72C149.52 102.38 152.35 103.31 153.79 105.65C154.82 107.29 154.44 109.89 152.57 110.67C150.14 111.83 147.38 111.69 144.79 111.6C139.64 111.34 134.62 110.15 129.61 109.02L129.29 108.95L129.26 108.61L128.18 94.16L128.17 93.96L128.32 93.85C132.15 91.12 146.83 79.93 150.84 84.15L150.86 84.13Z" fill="#373131"/>
<path d="M33.18 130.48C36.27 133.8 46.9 127.18 50.18 125.32C51.98 124.23 53.76 123.1 55.49 121.91L55.33 122.21L54.97 107.72L55.29 108.15C51.22 107.07 33.53 101.38 31.77 106.5C31.05 111.53 39.14 113.13 42.87 113.81L42.76 114.59C39.88 114.23 30.67 112.87 29.85 116.54C29.91 121.48 38.08 121.02 41.57 120.74L41.68 121.3C37.99 122.46 29.8 125.42 33.17 130.48H33.18ZM32.8 130.74C29.15 125.3 37.48 122 41.54 120.74L41.65 121.3C37.72 121.66 29.21 122.11 29.18 116.46C29.23 115.76 29.67 115.11 30.2 114.71C31.76 113.58 33.77 113.45 35.6 113.34C38.04 113.26 40.48 113.46 42.87 113.81L42.76 114.59C38.66 113.81 33.6 112.97 31.25 109.09C30.33 107.39 30.87 104.82 32.79 104.16C35.29 103.15 38.03 103.47 40.61 103.73C45.74 104.32 50.66 105.83 55.59 107.27L55.91 107.36V107.7L56.06 122.19V122.39L55.9 122.49C51.9 124.97 36.54 135.2 32.8 130.73V130.74Z" fill="#373131"/>
<path d="M31.98 122.04C32.49 121.83 32.79 121.7 32.79 121.7C32.79 121.7 32.49 121.82 31.98 122.04Z" fill="#C5CC23"/>
<path d="M109.164 146.28C131.82 137.177 142.807 111.431 133.704 88.7748C124.601 66.1187 98.855 55.1318 76.1989 64.2349C53.5428 73.338 42.5559 99.0839 51.659 121.74C60.7621 144.396 86.5081 155.383 109.164 146.28Z" fill="#FF6521"/>
<path d="M109.164 146.28C131.82 137.177 142.807 111.431 133.704 88.7748C124.601 66.1187 98.855 55.1318 76.1989 64.2349C53.5428 73.338 42.5559 99.0839 51.659 121.74C60.7621 144.396 86.5081 155.383 109.164 146.28Z" stroke="#373131" stroke-miterlimit="10"/>
<path d="M111.311 125.56C121.609 115.262 121.609 98.565 111.311 88.2669C101.013 77.9688 84.3161 77.9688 74.018 88.2669C63.7198 98.565 63.7198 115.262 74.018 125.56C84.3161 135.858 101.013 135.858 111.311 125.56Z" fill="#F9EB32"/>
<path d="M123.68 85.39C124.8 83.78 123.32 83.89 123.32 83.89C123.32 83.89 108.07 88.64 105.83 89.44C103.59 90.23 103.43 93.36 101.57 98.16C99.71 102.96 96.45 104.33 96.45 104.33C96.47 101.65 95.21 99.19 94.03 99.48C92.84 99.76 93.41 102.81 93.4 103.48C93.4 104.15 92.23 104.52 92.23 104.52C92.23 104.52 91.02 104.72 90.71 104.13C90.4 103.53 89.52 100.57 88.33 100.85C87.14 101.14 87.14 103.9 88.38 106.28C88.38 106.28 84.85 106.54 81.01 103.12C77.23 99.75 75.65 97.07 73.36 97.29C73.32 97.29 73.29 97.29 73.25 97.29C70.9 97.6 55.16 100.31 55.16 100.31C55.16 100.31 53.8 100.89 55.52 101.81C55.79 101.96 56.25 102.16 56.82 102.39C59.82 103.61 66 105.73 66 105.73C66 105.73 68.47 106.69 68.35 109.6C68.27 111.45 68.37 117.71 68.37 117.71C68.37 117.71 68.28 119.4 69.43 118.63C70.58 117.85 72.54 114.53 72.54 114.53C72.54 114.53 75.15 111.48 78.81 112.77C82.47 114.06 83.02 118.11 83.29 119.22C83.56 120.33 83.52 122.6 84.38 123.06C85.24 123.52 86.06 120.31 86.35 119.41C86.64 118.5 88.23 116.78 89.7 117.01C90.62 117.15 92.55 119.35 94.02 121.33C94.91 122.53 95.63 123.63 95.85 124.15C96.43 125.52 97.06 127.79 97.77 127.62C98.48 127.45 98.01 125.14 97.9 123.65C97.8 122.17 98.92 115.38 100.13 114.5C101.34 113.62 103.54 114.43 104.21 115.11C104.88 115.79 107.06 118.27 107.62 117.47C108.18 116.67 107.11 114.67 106.85 113.56C106.58 112.45 105.24 108.59 107.9 105.78C110.57 102.96 114.28 104.49 114.28 104.49C114.28 104.49 117.54 106.55 118.91 106.72C120.29 106.89 119.43 105.42 119.43 105.42C119.43 105.42 117.84 102.18 116.68 99.91C116.31 99.2 115.99 98.58 115.77 98.19C114.34 95.66 116.11 93.68 116.11 93.68C116.11 93.68 122.54 87.03 123.66 85.42L123.68 85.39Z" fill="#373131"/>
</svg>
