<svg width="137" height="190" viewBox="0 0 137 190" fill="none" xmlns="http://www.w3.org/2000/svg">
<path d="M82.2421 115.795L102.112 189.015C102.112 189.015 108.322 189.605 109.932 184.985L90.0321 111.555L82.2321 115.795H82.2421Z" fill="#F9EB32"/>
<path d="M76.7521 115.055C76.7521 115.055 69.6921 127.795 74.8921 130.095C80.0921 132.395 81.4121 118.215 81.4121 118.215C81.4121 118.215 81.3221 130.515 86.2121 129.975C91.1021 129.445 87.8321 117.035 87.8321 117.035C87.8321 117.035 90.9821 126.905 96.4221 125.505C101.852 124.115 93.4921 114.815 93.4921 114.815C93.4921 114.815 100.692 122.325 103.102 119.505C105.512 116.685 94.4221 105.775 94.4221 105.775L76.7721 115.045L76.7521 115.055Z" fill="#C5CC23"/>
<path d="M93.3018 111.505C117.18 97.6797 125.33 67.1147 111.505 43.2361C97.6797 19.3574 67.1147 11.2076 43.2361 25.0328C19.3574 38.8581 11.2076 69.4231 25.0328 93.3018C38.8581 117.18 69.4231 125.33 93.3018 111.505Z" fill="#C5CC23"/>
<path d="M109.632 81.8248C103.902 76.0048 93.1821 68.3548 68.3621 69.0948C68.4221 69.1848 68.4821 69.2748 68.5421 69.3648C80.9021 87.2448 84.3721 98.5148 85.0121 105.945C85.3921 110.445 84.7321 113.535 84.3621 115.845C95.2721 112.075 104.202 104.965 110.252 96.0148C112.232 93.0948 113.882 89.9748 115.212 86.7148C113.652 84.7648 109.752 81.6448 109.632 81.8348V81.8248Z" fill="#FFF3E1"/>
<mask id="mask0_95_120" style="mask-type:luminance" maskUnits="userSpaceOnUse" x="18" y="18" width="101" height="101">
<path d="M93.3018 111.505C117.18 97.6797 125.33 67.1147 111.505 43.2361C97.6797 19.3574 67.1147 11.2076 43.2361 25.0328C19.3574 38.8581 11.2076 69.4231 25.0328 93.3018C38.8581 117.18 69.4231 125.33 93.3018 111.505Z" fill="white"/>
</mask>
<g mask="url(#mask0_95_120)">
<path d="M116.462 52.2548C112.632 40.5748 104.792 31.1748 94.8621 25.1248C94.4821 25.2348 66.6521 33.5548 67.8121 68.1348C67.8121 68.1848 67.8121 68.2348 67.8121 68.2848C67.8521 68.3448 67.8921 68.4048 67.9321 68.4748C68.0121 68.4248 68.0821 68.3748 68.1621 68.3248C68.5821 67.5648 69.2721 67.3148 70.0021 67.1148C70.8121 66.5948 71.6121 66.0948 72.4121 65.6148C91.3021 54.2248 106.202 54.8048 113.032 56.0048C114.682 55.8948 116.272 56.2648 117.752 56.9648C117.622 56.3648 117.482 55.7648 117.322 55.1548C117.062 54.1748 116.772 53.2148 116.462 52.2648V52.2548Z" fill="#FFF3E1"/>
<path d="M113.042 55.9848C106.212 54.7848 91.3121 54.2048 72.4221 65.5948C71.9321 66.6648 70.9521 66.8448 70.0121 67.0948C69.4021 67.4948 68.7921 67.8848 68.1721 68.3048C68.1221 68.3948 68.0721 68.4848 68.0321 68.5848C68.1421 68.7548 68.2521 68.9148 68.3621 69.0748C93.1821 68.3348 103.902 75.9848 109.632 81.8048C109.752 81.6148 109.862 81.4248 109.982 81.2348C111.992 82.8548 113.652 84.7348 115.212 86.6848C116.822 82.7448 117.952 78.6048 118.522 74.3348C119.012 70.6748 119.082 66.9348 118.732 63.1648C118.542 61.1248 118.232 59.0748 117.782 57.0248C117.782 56.9948 117.772 56.9648 117.762 56.9348C116.282 56.2248 114.692 55.8648 113.042 55.9748V55.9848ZM111.542 78.6748C112.082 77.7548 112.602 76.8248 113.122 75.8548C112.612 76.8248 112.082 77.7548 111.542 78.6748Z" fill="#C5CC23"/>
<path d="M55.4621 19.3448C51.0921 20.4948 47.0021 22.1648 43.2421 24.2648C35.3121 28.6948 28.8521 35.0548 24.3221 42.5448C23.5421 43.8348 22.8421 45.1748 22.1821 46.5248C23.4221 48.5748 27.0121 52.9548 26.9021 53.1048C32.7921 59.9648 45.0021 69.5548 66.9821 69.1048C67.1721 68.9748 67.3521 68.8548 67.5521 68.7248C67.6421 68.6648 67.7321 68.6048 67.8221 68.5448C67.8221 68.4548 67.8221 68.3648 67.8221 68.2748C56.4721 51.3748 54.5221 37.2948 54.7921 28.7248C55.0021 28.5948 55.1821 28.4648 55.3921 28.3448C55.5521 24.3848 56.1621 21.6848 56.4921 20.4848C56.5621 20.0048 56.6421 19.5248 56.7321 19.0548C56.3121 19.1548 55.8921 19.2448 55.4621 19.3548V19.3448Z" fill="#FFF3E1"/>
<path d="M26.9021 53.1148C26.6221 52.7948 26.3821 52.4848 26.1321 52.1748C24.3321 50.4548 22.8321 48.5448 21.5921 46.5048C18.1521 53.5448 16.3121 61.3648 16.4521 69.4048C16.4821 69.4448 16.5121 69.4748 16.5321 69.5048C16.5121 69.5548 16.4821 69.6048 16.4621 69.6548C16.5521 73.4748 17.0621 77.3448 18.0721 81.1948C18.2021 81.6848 18.3621 82.1648 18.5021 82.6548C20.2621 83.1648 22.1921 83.0648 23.9021 83.2748C24.0021 83.2848 24.1021 83.3048 24.2021 83.3148C31.8621 84.3948 45.0621 84.1048 66.9821 69.1148C45.0021 69.5648 32.7921 59.9748 26.9021 53.1148Z" fill="#C5CC23"/>
<path d="M49.7421 114.785C50.3221 114.125 51.1421 113.405 52.1121 112.555C52.6921 112.005 53.3021 111.465 53.9121 110.935C53.3021 111.475 52.6921 112.005 52.1121 112.555C57.7521 107.605 68.5621 98.0949 67.8421 69.1049C67.5521 69.1049 67.2821 69.1049 66.9921 69.1049C45.0721 84.0949 31.8721 84.3949 24.2121 83.3049C24.1121 83.2949 24.0121 83.2749 23.9121 83.2649C22.2021 83.0449 20.2721 83.1549 18.5121 82.6449C23.1621 98.4049 35.0021 110.215 49.5821 115.565C50.2521 114.465 51.1421 113.475 52.1121 112.545C51.1421 113.395 50.3221 114.115 49.7421 114.775V114.785Z" fill="#FFF3E1"/>
<path d="M67.9421 69.1049C67.9421 69.1049 67.8721 69.1049 67.8321 69.1049C68.5521 98.0949 57.7421 107.605 52.1021 112.555C51.1221 113.485 50.2421 114.465 49.5721 115.575C50.0621 115.755 50.5521 115.945 51.0421 116.115C60.2221 119.165 70.4021 119.685 80.5121 117.035C81.8221 116.695 83.1021 116.295 84.3521 115.855C84.7221 113.555 85.3821 110.455 85.0021 105.955C84.3721 98.5249 80.8921 87.2549 68.5321 69.3749C68.4721 69.2849 68.4121 69.1949 68.3521 69.1049C68.2121 69.1049 68.0721 69.1049 67.9321 69.1049H67.9421Z" fill="#C5CC23"/>
<path d="M76.1421 18.2348C69.6721 17.2148 62.9121 17.4148 56.1421 19.0148C56.0521 19.4948 55.9721 19.9648 55.9021 20.4448C55.5021 22.9848 54.9121 28.2348 54.8021 28.3048C54.4621 36.8348 56.2921 51.1148 67.8221 68.2748C67.8221 68.2248 67.8221 68.1748 67.8221 68.1248C66.6721 33.5448 94.4921 25.2248 94.8721 25.1148C89.1921 21.6548 82.8321 19.2848 76.1421 18.2248V18.2348ZM66.2821 22.2648C65.8521 22.4648 65.4021 22.6448 64.9821 22.8448C65.4021 22.6448 65.8621 22.4648 66.2821 22.2648Z" fill="#C5CC23"/>
</g>
<path d="M95.1472 82.919C103.24 68.0763 97.7676 49.4837 82.9249 41.3912C68.0822 33.2987 49.4896 38.7708 41.3971 53.6135C33.3046 68.4562 38.7767 87.0488 53.6194 95.1413C68.4621 103.234 87.0547 97.7617 95.1472 82.919Z" fill="#C5CC23"/>
<mask id="mask1_95_120" style="mask-type:luminance" maskUnits="userSpaceOnUse" x="37" y="37" width="62" height="62">
<path d="M95.1472 82.919C103.24 68.0763 97.7676 49.4837 82.9249 41.3912C68.0822 33.2987 49.4896 38.7708 41.3971 53.6135C33.3046 68.4562 38.7767 87.0488 53.6194 95.1413C68.4621 103.234 87.0547 97.7617 95.1472 82.919Z" fill="white"/>
</mask>
<g mask="url(#mask1_95_120)">
<path d="M82.2021 90.9846C82.0721 91.0246 81.9421 91.0747 81.8121 91.1147C81.4621 86.1547 79.5321 78.3747 67.7721 68.8947C67.7721 68.9647 67.7521 69.0247 67.7521 69.0947C66.3921 82.2547 63.5421 88.8447 60.8921 92.5247C59.2921 94.7547 57.7621 95.9247 56.6721 96.8447C63.2121 99.4147 70.1521 99.6646 76.4921 97.9146C78.5621 97.3446 80.5621 96.5547 82.4621 95.5747C82.5121 94.0547 82.4821 92.5246 82.2021 90.9846Z" fill="#FFF3E1"/>
<path d="M96.6721 80.1347C99.5221 73.2147 99.6221 65.7647 97.4221 59.0447C97.2021 58.9447 81.0421 51.7747 67.8921 68.2247C67.8721 68.2447 67.8521 68.2747 67.8321 68.2947C67.8321 68.3447 67.8221 68.3847 67.8121 68.4347C67.8721 68.4347 67.9221 68.4447 67.9821 68.4547C68.4721 68.2747 68.9021 68.4247 69.3121 68.6247C69.8921 68.7047 70.4621 68.7947 71.0221 68.8847C71.1421 68.8347 71.2621 68.7647 71.3821 68.6647C71.2521 68.7647 71.1421 68.8247 71.0221 68.8847C84.2621 71.0947 90.9221 77.2547 93.6121 80.5147C94.4221 81.1147 95.0121 81.9147 95.4121 82.8247C95.5921 82.4947 95.7621 82.1547 95.9321 81.8147C96.2021 81.2647 96.4421 80.7047 96.6821 80.1347H96.6721Z" fill="#FFF3E1"/>
<path d="M93.6121 80.5047C90.9321 77.2447 84.2721 71.0847 71.0221 68.8747C70.3721 69.1747 69.8421 68.8747 69.3121 68.6147C68.8721 68.5547 68.4321 68.4947 67.9821 68.4447C67.9221 68.4647 67.8621 68.4847 67.8021 68.5147C67.7821 68.6347 67.7721 68.7547 67.7621 68.8747C79.5321 78.3547 81.4621 86.1347 81.8021 91.0947C81.9321 91.0547 82.0621 91.0047 82.1921 90.9647C82.4821 92.5047 82.5021 94.0347 82.4521 95.5547C84.7521 94.3647 86.9221 92.9047 88.8721 91.1547C90.5421 89.6547 92.0621 87.9547 93.3921 86.0747C94.1121 85.0547 94.7821 83.9847 95.3821 82.8547C95.3821 82.8347 95.4021 82.8247 95.4121 82.8047C95.0121 81.8947 94.4221 81.0947 93.6121 80.4947V80.5047ZM83.9421 90.4047C84.5521 90.1947 85.1621 89.9647 85.7821 89.7247C85.1621 89.9747 84.5521 90.1947 83.9421 90.4047Z" fill="#C5CC23"/>
<path d="M81.4921 40.7847C79.0221 39.5847 76.4621 38.7447 73.8921 38.2247C68.4721 37.1347 62.9621 37.5247 57.9121 39.1947C57.0421 39.4847 56.1921 39.8247 55.3421 40.1847C55.1021 41.6147 55.0421 43.0947 55.2021 44.6047C55.2121 44.7447 55.2421 44.8847 55.2621 45.0347C55.1521 45.0547 55.0421 45.0747 54.9321 45.0947C54.9321 50.5947 56.7921 59.8647 67.1321 68.3547C67.2721 68.3747 67.4021 68.3847 67.5421 68.4047C67.6121 68.4047 67.6721 68.4247 67.7421 68.4247C67.7821 68.3847 67.8121 68.3447 67.8421 68.2947C69.2821 55.9847 73.9521 48.7047 77.4721 44.8447C77.6121 44.8647 77.7521 44.8747 77.9021 44.9047C79.5421 43.1347 80.8921 42.1347 81.5221 41.7047C81.7421 41.5147 81.9721 41.3247 82.2021 41.1347C81.9721 41.0147 81.7421 40.8847 81.5021 40.7747L81.4921 40.7847Z" fill="#FFF3E1"/>
<path d="M54.9221 45.0947C54.9221 44.8347 54.9221 44.5947 54.9421 44.3547C54.7921 42.8447 54.8521 41.3647 55.0821 39.9347C50.7021 41.8247 46.7621 44.7147 43.6421 48.4947C43.6421 48.5247 43.6421 48.5447 43.6421 48.5747C43.6121 48.5847 43.5821 48.5947 43.5521 48.6147C42.0821 50.4147 40.7921 52.4047 39.7321 54.5847C39.5921 54.8647 39.4821 55.1447 39.3521 55.4347C39.9621 56.3647 40.9021 57.0847 41.6021 57.8647C41.6421 57.9147 41.6821 57.9547 41.7221 58.0047C44.8321 61.5347 51.0521 66.6247 67.1221 68.3647C56.7821 59.8747 54.9221 50.6047 54.9221 45.1047V45.0947Z" fill="#C5CC23"/>
<path d="M41.0821 82.6447C41.6121 82.5647 42.2721 82.5647 43.0621 82.5547C43.5521 82.5247 44.0421 82.5247 44.5321 82.5147C44.0421 82.5147 43.5421 82.5247 43.0621 82.5547C47.6321 82.4947 56.3921 82.3747 67.5321 68.6847C67.3921 68.5747 67.2721 68.4647 67.1321 68.3547C51.0621 66.6147 44.8421 61.5247 41.7321 57.9947C41.7921 58.0647 41.8621 58.1447 41.9221 58.2247C41.8621 58.1447 41.8021 58.0747 41.7321 57.9947C41.6921 57.9447 41.6521 57.9047 41.6121 57.8547C40.9121 57.0747 39.9721 56.3647 39.3621 55.4247C35.2721 64.5547 36.0721 74.6947 40.7021 82.9447C41.4521 82.7047 42.2521 82.5947 43.0721 82.5547C42.2921 82.5647 41.6221 82.5747 41.0921 82.6447H41.0821Z" fill="#FFF3E1"/>
<path d="M67.5721 68.7247C67.5721 68.7247 67.5421 68.6947 67.5221 68.6847C56.3821 82.3747 47.6221 82.4947 43.0521 82.5547C42.2321 82.5947 41.4321 82.7047 40.6821 82.9447C40.8421 83.2247 40.9821 83.5047 41.1521 83.7747C44.1921 88.8247 48.6921 93.0847 54.4221 95.8647C55.1621 96.2247 55.9121 96.5447 56.6621 96.8447C57.7421 95.9247 59.2721 94.7547 60.8821 92.5247C63.5321 88.8347 66.3821 82.2547 67.7421 69.0947C67.7421 69.0247 67.7621 68.9647 67.7621 68.8947C67.6921 68.8447 67.6321 68.7847 67.5621 68.7347L67.5721 68.7247Z" fill="#C5CC23"/>
<path d="M91.4921 48.4447C90.3021 47.9847 89.1121 47.5747 87.9521 47.1847C89.1221 47.5647 90.3021 47.9847 91.4921 48.4447C88.9021 45.4147 85.6921 42.8347 81.9421 40.8947C81.7121 41.0847 81.4921 41.2647 81.2621 41.4647C80.0721 42.4847 78.9521 43.5847 77.8921 44.7147C77.8121 44.7047 77.7221 44.6847 77.6421 44.6647C74.1121 48.4747 69.3021 55.7947 67.8421 68.3047C67.8621 68.2847 67.8821 68.2547 67.9021 68.2347C81.0521 51.7847 97.2121 58.9547 97.4321 59.0547C96.1721 55.2047 94.1721 51.5947 91.5021 48.4547L91.4921 48.4447ZM85.3421 46.4147C85.0621 46.3347 84.7821 46.2447 84.5121 46.1647C84.7821 46.2347 85.0721 46.3347 85.3421 46.4147Z" fill="#C5CC23"/>
</g>
<path d="M95.1472 82.919C103.24 68.0763 97.7676 49.4837 82.9249 41.3912C68.0822 33.2987 49.4896 38.7708 41.3971 53.6135C33.3046 68.4562 38.7767 87.0488 53.6194 95.1413C68.4621 103.234 87.0547 97.7617 95.1472 82.919Z" stroke="#023067" stroke-width="0.69" stroke-miterlimit="10"/>
<path d="M48.5521 44.8947C53.3521 45.0847 58.1321 45.6447 62.8521 46.5547C67.5621 47.4747 72.2321 48.7647 76.6221 50.7847C78.8121 51.8047 80.9321 52.9947 82.8521 54.4747C83.8021 55.2047 84.7621 56.0447 85.4421 57.0947C86.1321 58.1247 86.6321 59.2647 86.9921 60.4247C87.7121 62.7647 87.9121 65.2147 87.8921 67.6347C87.8621 70.0547 87.6021 72.4547 87.1121 74.8447L87.0921 74.9347L87.0221 75.0047C84.1721 78.0747 81.0821 80.9047 77.7121 83.3947C76.0221 84.6247 74.2421 85.7747 72.3421 86.6847C70.4421 87.5847 68.3721 88.2947 66.1721 88.2747C65.0921 88.2747 63.9621 87.9847 63.0121 87.5147C62.0421 87.0647 61.1321 86.5047 60.2721 85.8847C58.5521 84.6347 57.0721 83.1047 55.7221 81.4947C53.0521 78.2347 50.9021 74.6247 49.1621 70.7947L49.1021 70.6647L49.1521 70.5347C50.3121 67.3947 51.7121 64.3647 53.4921 61.5347C54.3921 60.1247 55.3921 58.7647 56.6321 57.5947C57.2521 57.0147 57.9421 56.4847 58.7121 56.0947C59.4821 55.6947 60.3821 55.4647 61.2521 55.4847C62.9721 55.4947 64.6221 55.8647 66.2221 56.3147C67.8321 56.7647 69.4021 57.3347 70.9421 57.9447C74.0321 59.1847 77.0321 60.6047 79.9621 62.1847L80.1621 62.2947L80.1221 62.5147L77.9021 74.8247L77.8621 75.0647H77.6221C75.4921 75.1047 73.3721 75.0347 71.2621 74.8647C69.1521 74.6847 67.0321 74.4247 64.9621 73.8447C63.9321 73.5447 62.9121 73.1847 61.9921 72.5247C61.5421 72.1847 61.1521 71.7147 60.9821 71.1547C60.8021 70.6047 60.8121 70.0047 60.9321 69.4647C61.1821 68.3747 61.7621 67.4347 62.3921 66.5647C63.0321 65.7047 63.7421 64.9147 64.5421 64.1747L64.6921 64.0347L64.8321 64.1847L68.4421 68.1147L68.1621 68.3647L64.5221 64.4547H64.8121C64.0621 65.1747 63.3521 65.9647 62.7421 66.8047C62.1421 67.6447 61.6021 68.5547 61.3821 69.5347C61.1521 70.5147 61.4621 71.5347 62.2921 72.1047C63.1021 72.6847 64.1021 73.0447 65.1021 73.3147C67.1121 73.8647 69.2121 74.1047 71.3121 74.2647C73.4121 74.4147 75.5221 74.4647 77.6121 74.4247L77.3321 74.6647L79.5321 62.3447L79.6921 62.6747C76.7921 61.1247 73.7921 59.7047 70.7321 58.4947C69.2021 57.8847 67.6521 57.3347 66.0721 56.8947C64.5021 56.4547 62.8821 56.1047 61.2821 56.1047C59.7021 56.0647 58.2921 56.9547 57.1221 58.0447C55.9521 59.1547 54.9821 60.4847 54.1021 61.8647C52.3721 64.6447 50.9821 67.6647 49.8621 70.7347V70.4747C51.5621 74.2047 53.7121 77.7947 56.3321 80.9647C57.6521 82.5347 59.1021 84.0147 60.7521 85.2047C61.5721 85.8047 62.4421 86.3347 63.3621 86.7547C64.2721 87.2047 65.2121 87.4247 66.2121 87.4347C68.2021 87.4647 70.1721 86.7847 72.0121 85.9147C73.8621 85.0347 75.6021 83.9247 77.2721 82.7147C80.6021 80.2847 83.6821 77.4747 86.5021 74.4647L86.4121 74.6247C86.8921 72.3247 87.1621 69.9347 87.2021 67.5647C87.2321 65.2047 87.0421 62.8147 86.3621 60.5647C86.0221 59.4447 85.5521 58.3647 84.9021 57.4047C84.2721 56.4247 83.4121 55.6647 82.4621 54.9347C80.5921 53.4747 78.5121 52.3047 76.3721 51.2947C72.0521 49.2947 67.4321 47.9947 62.7621 47.0147C58.0821 46.0647 53.3221 45.4447 48.5521 45.2147V44.8347V44.8947Z" fill="#023067"/>
<path d="M76.3221 117.425C78.0721 117.135 79.8221 116.735 81.5421 116.245C83.2621 115.785 84.9521 115.195 86.6121 114.545C88.2721 113.895 89.8921 113.135 91.4621 112.285C93.0421 111.455 94.5421 110.475 96.0221 109.465C96.1121 109.405 96.2221 109.425 96.2821 109.505C96.3421 109.585 96.3221 109.695 96.2421 109.755C94.8221 110.875 93.3721 111.975 91.7821 112.865C90.2321 113.805 88.5821 114.585 86.9021 115.265C85.2321 115.975 83.4921 116.515 81.7321 116.955C79.9621 117.375 78.1821 117.705 76.3521 117.785C76.2521 117.785 76.1621 117.705 76.1521 117.605C76.1521 117.505 76.2121 117.425 76.3121 117.415L76.3221 117.425Z" fill="#023067"/>
</svg>
